<svg xmlns="http://www.w3.org/2000/svg" viewBox="0 0 24 24" style="enable-background:new 0 0 24 24;">
<path d="M12,24C5.4,24,0,18.6,0,12C0,5.4,5.4,0,12,0c6.6,0,12,5.4,12,12C24,18.6,18.6,24,12,24z M12,1.8C6.4,1.8,1.8,6.4,1.8,12
	S6.4,22.2,12,22.2S22.2,17.6,22.2,12S17.6,1.8,12,1.8z"/>
<path d="M12,12.9c-0.5,0-0.9-0.4-0.9-0.9V7.6c0-0.5,0.4-0.9,0.9-0.9s0.9,0.4,0.9,0.9V12C12.9,12.5,12.5,12.9,12,12.9z"/>
<path d="M12,17.4c-0.2,0-0.5-0.1-0.7-0.3c-0.2-0.2-0.3-0.4-0.3-0.7c0-0.1,0-0.2,0.1-0.4c0-0.1,0.1-0.2,0.2-0.3c0.4-0.3,1-0.3,1.3,0
	c0.1,0.1,0.1,0.2,0.2,0.3c0.1,0.1,0.1,0.2,0.1,0.4c0,0.2-0.1,0.5-0.3,0.7C12.5,17.3,12.2,17.4,12,17.4z"/>
</svg>
