<svg xmlns="http://www.w3.org/2000/svg" viewBox="0 0 24 24" style="enable-background:new 0 0 24 24;">
<path d="M11.3,13.9l-7.2,7.2c-0.4,0.4-1,0.4-1.4,0c-0.4-0.4-0.4-1,0-1.4c0,0,0,0,0,0l7.3-7.3c-0.2-1.1,0.5-2.1,1.6-2.3
	c0.2,0,0.5,0,0.7,0l7.3-7.3c0.4-0.4,1-0.4,1.4,0c0.4,0.4,0.4,1,0,1.4l-7.2,7.2c0.4,1-0.2,2.2-1.2,2.6C12.2,14,11.8,14,11.3,13.9
	L11.3,13.9z M18.9,7.8C20.8,8.8,22,10.3,22,12c0,3.3-5,6-10,6c-1,0-2-0.1-3.1-0.3l1.9-1.9c2.1,0.7,4.4-0.5,5-2.6
	c0.2-0.8,0.2-1.6,0-2.4C15.8,10.8,18.9,7.8,18.9,7.8z M14.7,6.3l-1.8,1.8c-2.2-0.5-4.3,0.9-4.8,3c-0.1,0.6-0.1,1.2,0,1.8l-3.2,3.2
	C3.1,15,2,13.6,2,12c0-3.3,5-6,10-6C12.9,6,13.8,6.1,14.7,6.3z"/>
</svg>
