<svg xmlns="http://www.w3.org/2000/svg" x="0px" y="0px"  viewBox="0 0 24 24" xml:space="preserve">
	<path d="M15.1,11.3l-4.9-4.9c-0.4-0.4-1-0.4-1.3,0c0,0,0,0,0,0c-0.4,0.4-0.4,1,0,1.3l3.4,3.3H2.6c-0.5,0-0.9,0.4-0.9,0.9
		c0,0.5,0.4,0.9,0.9,0.9h0h9.5l-3.2,3.2c-0.4,0.4-0.4,1,0,1.3c0.2,0.2,0.4,0.3,0.7,0.3c0.2,0,0.5-0.1,0.7-0.3l4.9-4.9
		C15.5,12.3,15.5,11.7,15.1,11.3z"/>
	<path d="M12,0c2.5,0,4.9,0.8,7,2.2c5.4,3.9,6.6,11.4,2.7,16.8S10.4,25.6,5,21.7c-0.4-0.3-0.5-0.9-0.2-1.3c0.3-0.4,0.9-0.5,1.3-0.2
		c4.5,3.2,10.8,2.2,14-2.3s2.2-10.8-2.3-14c-3.2-2.3-7.5-2.5-10.9-0.5C6.4,3.7,5.7,3.6,5.4,3.1C5.1,2.7,5.3,2.1,5.7,1.8
		c0,0,0.1,0,0.1-0.1C7.7,0.6,9.8,0,12,0z"/>
</svg>
