<svg xmlns="http://www.w3.org/2000/svg" x="0px" y="0px" viewBox="0 0 32 32">
<path d="M16,1C7.7,1,1,7.7,1,16c0,8.3,6.7,15,15,15c8.3,0,15-6.7,15-15C31,7.7,24.3,1,16,1z M16,3c7.2,0,13,5.8,13,13
	c0,2.7-0.8,5.2-2.2,7.2c-1.6-2.7-4.1-4.7-7-5.6c1.4-1.1,2.2-2.8,2.2-4.7c0-3.3-2.7-6-6-6s-6,2.7-6,6c0,1.9,0.9,3.6,2.3,4.7
	c-2.9,0.9-5.4,2.9-7,5.6C3.8,21.2,3,18.7,3,16C3,8.8,8.8,3,16,3z M16,17c-2.2,0-4-1.8-4-4s1.8-4,4-4c2.2,0,4,1.8,4,4S18.2,17,16,17z
	 M16,29c-3.7,0-7-1.6-9.4-4.1c1.8-3.6,5.4-5.8,9.4-5.8c4.1,0,7.7,2.3,9.4,5.8C23.1,27.4,19.7,29,16,29z"/>
</svg>
