<svg xmlns="http://www.w3.org/2000/svg" x="0px" y="0px" viewBox="0 0 472 472" >
<path d="M452.6,358.9l-80-80c-10.2,20.1-23.4,38.5-39.5,54.6c-15.9,15.9-33.9,29-53.7,39.1l79.8,79.8c25.8,25.8,67.6,25.8,93.4,0
	C478.4,426.4,478.4,384.7,452.6,358.9z"/>
<path d="M365.4,183c0-100.9-81.8-182.7-182.7-182.7C81.8,0.3,0,82.1,0,183s81.8,182.7,182.7,182.7S365.4,283.9,365.4,183z
	 M182.7,258.7c-10.7,0-19.4-8.7-19.4-19.4l0-37.4l-37.4,0c-10.7,0-19.4-8.7-19.4-19.4c0-10.7,8.7-19.4,19.4-19.4l37.4,0v-37.4
	c0-10.7,8.7-19.4,19.4-19.4c10.7,0,19.4,8.7,19.4,19.4l0,37.4l37.4,0c10.7,0,19.4,8.7,19.4,19.4c0,10.7-8.7,19.4-19.4,19.4
	l-37.4,0v37.4C202.1,249.9,193.4,258.7,182.7,258.7z"/>
</svg>
