<svg xmlns="http://www.w3.org/2000/svg" width="380.144" height="562.091" viewBox="0 0 380.144 562.091">
  <defs>
    <clipPath id="clip-path">
      <rect id="Rectangle_11738" data-name="Rectangle 11738" width="263.741" height="513.54" rx="30" transform="translate(-6234.407 -30.995)" fill="#fff"/>
    </clipPath>
    <linearGradient id="linear-gradient" x1="0.36" y1="-0.011" x2="0.76" y2="1.111" gradientUnits="objectBoundingBox">
      <stop offset="0" stop-color="#ff8228"/>
      <stop offset="0.435" stop-color="#f0a"/>
      <stop offset="1" stop-color="#14e5e5"/>
    </linearGradient>
    <clipPath id="clip-path-2">
      <rect id="Rectangle_11733" data-name="Rectangle 11733" width="120.717" height="22.404" fill="none"/>
    </clipPath>
  </defs>
  <g id="Group_18022" data-name="Group 18022" transform="translate(6165.957 1538.314) rotate(14)">
    <rect id="Rectangle_11732" data-name="Rectangle 11732" width="263.741" height="513.54" rx="30" transform="translate(-6234.407 -30.995)" fill="#fff"/>
    <g id="Mask_Group_23" data-name="Mask Group 23" clip-path="url(#clip-path)">
      <circle id="Ellipse_3" data-name="Ellipse 3" cx="230" cy="230" r="230" transform="translate(-6333 58)" fill="url(#linear-gradient)"/>
    </g>
    <rect id="Rectangle_11734" data-name="Rectangle 11734" width="5.809" height="44.151" rx="2.905" transform="translate(-5971.658 49.173)" fill="#000e50"/>
    <rect id="Rectangle_11735" data-name="Rectangle 11735" width="5.809" height="40.665" rx="2.905" transform="translate(-6237.723 111.913)" fill="#000e50"/>
    <rect id="Rectangle_11736" data-name="Rectangle 11736" width="5.809" height="44.151" rx="2.905" transform="translate(-6237.723 49.173)" fill="#000e50"/>
    <g id="Group_18006" data-name="Group 18006" transform="translate(-6194.607 106.913)">
      <path id="Path_21506" data-name="Path 21506" d="M248.608,214.113a1.16,1.16,0,1,1-1.089-1.229,1.158,1.158,0,0,1,1.089,1.229" transform="translate(-79.267 -52.061)" fill="#bf4d00"/>
      <path id="Path_21507" data-name="Path 21507" d="M244.815,206.053a.99.99,0,1,1-.924-1.053.988.988,0,0,1,.924,1.053" transform="translate(-79.051 -51.568)" fill="#bf4d00"/>
      <path id="Path_21508" data-name="Path 21508" d="M153.643,222.266a1.509,1.509,0,1,1-1.415-1.6,1.513,1.513,0,0,1,1.415,1.6" transform="translate(-73.283 -52.548)" fill="#bf4d00"/>
      <path id="Path_21509" data-name="Path 21509" d="M161.4,180.279a.694.694,0,1,1-.653-.732.694.694,0,0,1,.653.732" transform="translate(-73.87 -49.975)" fill="#bf4d00"/>
      <path id="Path_21510" data-name="Path 21510" d="M173.677,184.286a1.544,1.544,0,1,1-1.449-1.629,1.547,1.547,0,0,1,1.449,1.629" transform="translate(-74.532 -50.17)" fill="#bf4d00"/>
      <path id="Path_21511" data-name="Path 21511" d="M178.033,223.654a1.295,1.295,0,1,1-1.211-1.37,1.3,1.3,0,0,1,1.211,1.37" transform="translate(-74.836 -52.649)" fill="#bf4d00"/>
      <path id="Path_21512" data-name="Path 21512" d="M209.208,214.931a1.567,1.567,0,1,1-1.467-1.666,1.559,1.559,0,0,1,1.467,1.666" transform="translate(-76.751 -52.085)" fill="#bf4d00"/>
      <path id="Path_21513" data-name="Path 21513" d="M175.077,175.42a1.278,1.278,0,1,1-1.2-1.357,1.28,1.28,0,0,1,1.2,1.357" transform="translate(-74.653 -49.632)" fill="#bf4d00"/>
      <path id="Path_21514" data-name="Path 21514" d="M227.039,216.5a1.646,1.646,0,1,1-1.541-1.746,1.642,1.642,0,0,1,1.541,1.746" transform="translate(-77.857 -52.178)" fill="#bf4d00"/>
      <path id="Path_21515" data-name="Path 21515" d="M196.955,206.723a2.06,2.06,0,1,1-1.932-2.176,2.063,2.063,0,0,1,1.932,2.176" transform="translate(-75.923 -51.539)" fill="#bf4d00"/>
      <path id="Path_21516" data-name="Path 21516" d="M189.916,212.712a1.333,1.333,0,1,1-1.245-1.41,1.333,1.333,0,0,1,1.245,1.41" transform="translate(-75.574 -51.962)" fill="#bf4d00"/>
      <path id="Path_21517" data-name="Path 21517" d="M180.9,211.848a1.107,1.107,0,1,1-1.038-1.181,1.1,1.1,0,0,1,1.038,1.181" transform="translate(-75.038 -51.922)" fill="#bf4d00"/>
      <path id="Path_21518" data-name="Path 21518" d="M172.05,201.357a1.419,1.419,0,1,1-1.33-1.5,1.423,1.423,0,0,1,1.33,1.5" transform="translate(-74.446 -51.246)" fill="#bf4d00"/>
      <path id="Path_21519" data-name="Path 21519" d="M164.18,193.432a1.539,1.539,0,1,1-1.441-1.635,1.536,1.536,0,0,1,1.441,1.635" transform="translate(-73.938 -50.742)" fill="#bf4d00"/>
      <path id="Path_21520" data-name="Path 21520" d="M157.772,202.878a1.374,1.374,0,1,1-1.286-1.449,1.367,1.367,0,0,1,1.286,1.449" transform="translate(-73.558 -51.344)" fill="#bf4d00"/>
      <path id="Path_21521" data-name="Path 21521" d="M154.183,196.476a2.088,2.088,0,1,1-1.956-2.209,2.1,2.1,0,0,1,1.956,2.209" transform="translate(-73.244 -50.896)" fill="#bf4d00"/>
      <path id="Path_21522" data-name="Path 21522" d="M147.978,202.667a1.67,1.67,0,1,1-1.563-1.774,1.673,1.673,0,0,1,1.563,1.774" transform="translate(-72.909 -51.311)" fill="#bf4d00"/>
      <path id="Path_21523" data-name="Path 21523" d="M143.113,216.651a.822.822,0,1,1-.771-.87.819.819,0,0,1,.771.87" transform="translate(-72.709 -52.242)" fill="#bf4d00"/>
      <path id="Path_21524" data-name="Path 21524" d="M252.388,201.665a1.815,1.815,0,1,1-1.7-1.916,1.815,1.815,0,0,1,1.7,1.916" transform="translate(-79.422 -51.239)" fill="#bf4d00"/>
      <path id="Path_21525" data-name="Path 21525" d="M132.587,219.034a1.552,1.552,0,1,1-1.454-1.641,1.551,1.551,0,0,1,1.454,1.641" transform="translate(-71.96 -52.343)" fill="#bf4d00"/>
      <path id="Path_21526" data-name="Path 21526" d="M181.7,195.966a.7.7,0,0,1-1.388-.089.7.7,0,1,1,1.388.089" transform="translate(-75.139 -50.956)" fill="#bf4d00"/>
      <path id="Path_21527" data-name="Path 21527" d="M117.181,209.8a1.561,1.561,0,1,1-1.461-1.652,1.561,1.561,0,0,1,1.461,1.652" transform="translate(-70.996 -51.765)" fill="#bf4d00"/>
      <path id="Path_21528" data-name="Path 21528" d="M111.118,210.379a1.768,1.768,0,1,1-1.655-1.873,1.767,1.767,0,0,1,1.655,1.873" transform="translate(-70.59 -51.787)" fill="#bf4d00"/>
      <path id="Path_21529" data-name="Path 21529" d="M106.412,213.832a.679.679,0,0,1-1.355-.085.679.679,0,1,1,1.355.085" transform="translate(-70.432 -52.075)" fill="#bf4d00"/>
      <path id="Path_21530" data-name="Path 21530" d="M161.526,217.383a.834.834,0,0,1-.878.778.827.827,0,1,1,.878-.778" transform="translate(-73.861 -52.288)" fill="#bf4d00"/>
      <path id="Path_21531" data-name="Path 21531" d="M80.713,200.884a.9.9,0,1,1-.842-.95.9.9,0,0,1,.842.95" transform="translate(-68.796 -51.251)" fill="#bf4d00"/>
      <path id="Path_21532" data-name="Path 21532" d="M86.859,212.625a1.619,1.619,0,1,1-1.517-1.715,1.613,1.613,0,0,1,1.517,1.715" transform="translate(-69.091 -51.937)" fill="#bf4d00"/>
      <path id="Path_21533" data-name="Path 21533" d="M135.312,114.079c-1.481,1.632-12.4-6.3-26.335-4.966-13.986.692-23.641,10.121-25.34,8.72-.777-.611.481-4.383,4.727-8.361a33.257,33.257,0,0,1,41.066-2.989c4.774,3.326,6.562,6.878,5.882,7.6" transform="translate(-69.078 -45.046)" fill="#ff7f00"/>
      <path id="Path_21534" data-name="Path 21534" d="M108.177,101.013c12.325-.894,23.532,3.764,30.221,11.5-6.186-8.409-17.631-13.613-30.311-12.692s-23.249,7.727-28.153,16.94c5.5-8.623,15.918-14.855,28.243-15.749" transform="translate(-68.861 -44.982)" fill="#e25b00"/>
      <path id="Path_21535" data-name="Path 21535" d="M245.073,120.755c-1.675,1.429-11.489-7.838-25.484-8.294-13.958-1.107-24.738,7.006-26.246,5.4-.689-.7,1.038-4.284,5.759-7.687a33.251,33.251,0,0,1,41.1,2.3c4.318,3.91,5.632,7.659,4.867,8.284" transform="translate(-75.946 -45.257)" fill="#ff7f00"/>
      <path id="Path_21536" data-name="Path 21536" d="M219.828,104.345c12.341.692,22.86,6.746,28.5,15.277-5.059-9.13-15.743-15.757-28.437-16.467s-24.046,4.683-30.095,13.194c6.558-7.852,17.69-12.695,30.027-12" transform="translate(-75.733 -45.193)" fill="#e25b00"/>
      <path id="Path_21537" data-name="Path 21537" d="M212.074,45.78c-8.993-4.626-13.527,8.771-5.633,12.095C235.514,70.12,245.2,82.045,251.919,96.3c0,0-2.646-31.412-39.845-50.523" transform="translate(-76.519 -41.547)" fill="#e25b00"/>
      <path id="Path_21538" data-name="Path 21538" d="M211.851,42.08c-9.277-4.017-13.207,9.245-5.206,12.286,29.487,11.216,38.062,27.7,45.27,41.717,0,0-3.155-38.017-40.064-54" transform="translate(-76.517 -41.329)" fill="#000e50"/>
      <path id="Path_21539" data-name="Path 21539" d="M123.2,50.674c9.676-2.915,12.4,10.289,4.177,12.66C97.106,72.081,87.24,80.09,78.914,93.451c0,0,3.922-30.607,44.286-42.776" transform="translate(-68.796 -41.887)" fill="#e25b00"/>
      <path id="Path_21540" data-name="Path 21540" d="M124.177,45.347c9.677-2.9,12.027,10.718,3.727,12.8C97.34,65.825,86.9,81.18,78.11,94.233c0,0,7.58-37.341,46.067-48.886" transform="translate(-68.746 -41.555)" fill="#000e50"/>
      <path id="Path_21541" data-name="Path 21541" d="M259.682,160.356a41.427,41.427,0,1,1-41.427-41.426,41.428,41.428,0,0,1,41.427,41.426" transform="translate(-74.922 -46.183)" fill="#e25b00"/>
      <path id="Path_21542" data-name="Path 21542" d="M256.279,162.5A37.78,37.78,0,1,1,218.5,124.716,37.784,37.784,0,0,1,256.279,162.5" transform="translate(-75.165 -46.545)" fill="#edf8f9"/>
      <path id="Path_21543" data-name="Path 21543" d="M224.966,167.016a16.648,16.648,0,1,1-16.648-16.644,16.648,16.648,0,0,1,16.648,16.644" transform="translate(-75.85 -48.15)"/>
      <path id="Path_21544" data-name="Path 21544" d="M223.5,167.121a15.072,15.072,0,1,1-15.072-15.072A15.074,15.074,0,0,1,223.5,167.121" transform="translate(-75.955 -48.255)" fill="#29b6f6"/>
      <path id="Path_21545" data-name="Path 21545" d="M222.339,167.2l-8.428,1.1,7.342,4.291-8.17-2.314,5.207,6.708-6.708-5.2,2.311,8.166-4.288-7.338-1.1,8.428-1.1-8.428-4.284,7.338,2.31-8.166-6.71,5.2,5.206-6.708-8.165,2.316L203.1,168.3l-8.431-1.1,8.431-1.1-7.339-4.29,8.165,2.313-5.206-6.7,6.71,5.206-2.31-8.171L207.4,161.8l1.1-8.43,1.1,8.43,4.288-7.343-2.311,8.171,6.708-5.206-5.207,6.7,8.17-2.306-7.342,4.283Z" transform="translate(-76.038 -48.338)" fill="#0277bd"/>
      <path id="Path_21546" data-name="Path 21546" d="M214.676,167.752a5.621,5.621,0,1,1-5.621-5.621,5.621,5.621,0,0,1,5.621,5.621" transform="translate(-76.586 -48.886)"/>
      <path id="Path_21547" data-name="Path 21547" d="M201.535,137.963c.418,2.9,2.142,5.518,8.477,5.925,11.606.745,21.569,10.919,22.341,22.717.937,14.379,23.558,8.177,21.754-10.032-1.709-17.264-22.274-33.847-44.135-27.288-3.72,1.118-9.109,3.985-8.438,8.678" transform="translate(-76.464 -46.74)" fill="#fff"/>
      <path id="Path_21548" data-name="Path 21548" d="M225.892,159.428a7.68,7.68,0,1,1-7.68-7.685,7.675,7.675,0,0,1,7.68,7.685" transform="translate(-77.03 -48.236)" fill="#fff"/>
      <path id="Path_21549" data-name="Path 21549" d="M207.679,175.119a4.553,4.553,0,1,1-4.55-4.552,4.554,4.554,0,0,1,4.55,4.552" transform="translate(-76.282 -49.414)" fill="#fff"/>
      <path id="Path_21550" data-name="Path 21550" d="M68.121,158.726a43.42,43.42,0,1,0,43.42-43.418,43.415,43.415,0,0,0-43.42,43.418" transform="translate(-68.121 -45.957)" fill="#e25b00"/>
      <path id="Path_21551" data-name="Path 21551" d="M72.2,161.545A39.594,39.594,0,1,0,111.8,121.952,39.6,39.6,0,0,0,72.2,161.545" transform="translate(-68.377 -46.373)" fill="#edf8f9"/>
      <path id="Path_21552" data-name="Path 21552" d="M107.977,166.282a17.447,17.447,0,1,0,17.444-17.444,17.443,17.443,0,0,0-17.444,17.444" transform="translate(-70.615 -48.054)"/>
      <path id="Path_21553" data-name="Path 21553" d="M109.737,166.392A15.795,15.795,0,1,0,125.531,150.6a15.794,15.794,0,0,0-15.794,15.792" transform="translate(-70.725 -48.165)" fill="#29b6f6"/>
      <path id="Path_21554" data-name="Path 21554" d="M111.116,166.479l8.834,1.154-7.692,4.492,8.564-2.417-5.457,7.031,7.027-5.462-2.418,8.564,4.491-7.694,1.154,8.834,1.152-8.84,4.493,7.7-2.423-8.564,7.031,5.462-5.459-7.031,8.564,2.42-7.695-4.5,8.835-1.154-8.835-1.151,7.695-4.494-8.564,2.422,5.459-7.029-7.031,5.46,2.423-8.564-4.493,7.692-1.152-8.836-1.154,8.836-4.491-7.692,2.418,8.564-7.027-5.456,5.457,7.025-8.564-2.42,7.692,4.491Z" transform="translate(-70.811 -48.251)" fill="#0277bd"/>
      <path id="Path_21555" data-name="Path 21555" d="M120.3,167.053a5.892,5.892,0,1,0,5.891-5.894,5.891,5.891,0,0,0-5.891,5.894" transform="translate(-71.386 -48.825)"/>
      <path id="Path_21556" data-name="Path 21556" d="M131.171,135.833c-.435,3.031-2.243,5.783-8.881,6.208-12.166.783-22.609,11.441-23.414,23.805-.984,15.071-24.693,8.575-22.8-10.512,1.791-18.095,23.344-35.471,46.254-28.6,3.9,1.172,9.547,4.175,8.844,9.094" transform="translate(-68.612 -46.576)" fill="#fff"/>
      <path id="Path_21557" data-name="Path 21557" d="M128.028,159.4a8.048,8.048,0,1,0,8.047-8.053,8.045,8.045,0,0,0-8.047,8.053" transform="translate(-71.869 -48.212)" fill="#fff"/>
      <path id="Path_21558" data-name="Path 21558" d="M125.155,175.119a4.553,4.553,0,1,1-4.554-4.552,4.555,4.555,0,0,1,4.554,4.552" transform="translate(-71.119 -49.414)" fill="#fff"/>
      <path id="Path_21559" data-name="Path 21559" d="M223.7,195.956c0,2.64-3.632,4.779-8.114,4.779s-8.117-2.139-8.117-4.779,3.634-4.782,8.117-4.782,8.114,2.145,8.114,4.782" transform="translate(-76.839 -50.703)" fill="#fff"/>
      <path id="Path_21560" data-name="Path 21560" d="M102.762,196.618c0,2.765,3.808,5.008,8.5,5.008s8.506-2.243,8.506-5.008-3.807-5.014-8.506-5.014-8.5,2.243-8.5,5.014" transform="translate(-70.288 -50.73)" fill="#fff"/>
      <path id="Path_21561" data-name="Path 21561" d="M237.032,245.63c-32.735,24.36-60.559,28.285-82.771,26.107-26.835-2.631-47.223-15.57-55.7-25.237-1.705-1.953-2.936-3.726-3.664-4.584-.921-1.092-1.752-.4.256,2.323,23.112,31.306,88.274,51.55,140.7,3.234.487-1.016.946-1.346,1.172-1.843" transform="translate(-69.735 -53.846)" fill="#ff9100"/>
      <path id="Path_21562" data-name="Path 21562" d="M95.179,244.212c-1.306-1.819-3.415-4.135-3.4-5.771.023-2.273,1.844.226,2.722,1.614,6.043,9.463,45.217,49.221,112.031,22.508,8.871-3.548,19.3-8.919,27.565-16.024,5.914-5.089,7.281-5.019,3.86-1.421-4.583,4.812-15.038,11.522-20.933,14.54-54.054,27.629-106.7,5.688-121.844-15.446" transform="translate(-69.601 -53.602)" fill="#33003f"/>
      <path id="Path_21563" data-name="Path 21563" d="M238.325,247.9a21.212,21.212,0,0,0-4.031-3.058c-5.49-3.18-15.071-1.441-19.716,2.676-5.1,4.525-4.745,10.543-2.6,16.164.2.536.425,1.065.653,1.593a123.006,123.006,0,0,0,11.818-5.261c3.726-1.911,10.025-6.448,15.779-10.059a22.341,22.341,0,0,0-1.9-2.056" transform="translate(-77.028 -53.958)" fill="#fff8e1"/>
      <path id="Path_21564" data-name="Path 21564" d="M238.858,248.773c-3.949,3.909-9.557,6.545-14.425,8.425a35.686,35.686,0,0,1-13.652,2.572,23.724,23.724,0,0,0,1.214,4.261c.2.537.384,1.1.62,1.626a123.015,123.015,0,0,0,11.852-5.295A112.94,112.94,0,0,0,240.246,250.3a19.94,19.94,0,0,0-1.387-1.532" transform="translate(-77.046 -54.306)" fill="#eadcb9"/>
      <path id="Path_21565" data-name="Path 21565" d="M127.514,263c2.5-6.75,1.712-13.763-8.7-20.244-6.826-4.251-13.194-3.409-18.2,1.452a14.617,14.617,0,0,0-2.679,3.125c5.581,6.579,15.938,13.882,28.413,18.477a24.362,24.362,0,0,0,1.162-2.81" transform="translate(-69.987 -53.758)" fill="#fff8e1"/>
      <path id="Path_21566" data-name="Path 21566" d="M127.825,262.358a30.8,30.8,0,0,1-17.917-7.74,40.848,40.848,0,0,1-8.937-10.479c-.119.107-.239.22-.352.326a14.614,14.614,0,0,0-2.679,3.125c5.581,6.579,15.938,13.882,28.413,18.477a24.357,24.357,0,0,0,1.162-2.81c.107-.3.215-.6.31-.9" transform="translate(-69.987 -54.016)" fill="#eadcb9"/>
      <path id="Path_21567" data-name="Path 21567" d="M185.8,270.879c-.159-1.028-.352-2.047-.59-3.064-.092-.379-.183-.756-.287-1.132-2.42-8.641-10.269-12.09-19.426-11.074-9.4,1.043-14.037,6.042-15.438,13.568-.133.708-.235,1.425-.315,2.157-.028.284-.053.583-.076.876a110.272,110.272,0,0,0,36.326.064c-.058-.461-.119-.928-.195-1.395" transform="translate(-73.222 -54.723)" fill="#fff8e1"/>
      <path id="Path_21568" data-name="Path 21568" d="M185.212,268.652a21.574,21.574,0,0,1-6.112,2.789c-5.237,1.5-10.946,1.407-16.329.861-3.3-.336-8.543-.72-12.7-2.3-.133.709-.24,1.426-.32,2.158-.028.284-.053.583-.076.877A110.271,110.271,0,0,0,186,273.1c-.058-.461-.119-.928-.195-1.395-.159-1.028-.352-2.047-.59-3.054" transform="translate(-73.222 -55.55)" fill="#eadcb9"/>
    </g>
    <g id="Group_18014" data-name="Group 18014" transform="translate(-6020.488 24.369)">
      <line id="Line_2" data-name="Line 2" x2="22.11" transform="translate(0 0)" fill="none" stroke="#000e50" stroke-linecap="round" stroke-width="3"/>
      <line id="Line_3" data-name="Line 3" x2="22.11" transform="translate(0 5.528)" fill="none" stroke="#000e50" stroke-linecap="round" stroke-width="3"/>
      <line id="Line_4" data-name="Line 4" x2="22.11" transform="translate(0 11.055)" fill="none" stroke="#000e50" stroke-linecap="round" stroke-width="3"/>
    </g>
    <g id="Group_18015" data-name="Group 18015" transform="translate(-6142.648 364.781)">
      <circle id="Ellipse_1" data-name="Ellipse 1" cx="40.904" cy="40.904" r="40.904" transform="translate(0)" fill="#000e50"/>
      <text id="Search" transform="translate(40.477 50.427)" fill="#fff" font-size="26" font-family="Montserrat-ExtraBold, Montserrat" font-weight="800"><tspan x="-24" y="0">GO!</tspan></text>
    </g>
    <path id="Path_21579" data-name="Path 21579" d="M0,0A7.66,7.66,0,0,1,5.544,7.343v9.635a7.684,7.684,0,0,0,7.685,7.683h92.425a7.682,7.682,0,0,0,7.683-7.683V7.343A7.66,7.66,0,0,1,118.88,0Z" transform="translate(-6161.442 -25.646)" fill="#000e50"/>
    <g id="Group_18017" data-name="Group 18017" transform="translate(-6133.804 -17.623)" opacity="0.3">
      <circle id="Ellipse_2" data-name="Ellipse 2" cx="3.869" cy="3.869" r="3.869" transform="translate(0 0)" fill="#fff"/>
      <rect id="Rectangle_11737" data-name="Rectangle 11737" width="51.959" height="7.739" rx="3.869" transform="translate(11.055 0)" fill="#fff"/>
    </g>
    <g id="Rectangle_11739" data-name="Rectangle 11739" transform="translate(-6234.407 -30.995)" fill="none" stroke="#000e50" stroke-width="6">
      <rect width="263.741" height="513.54" rx="30" stroke="none"/>
      <rect x="3" y="3" width="257.741" height="507.54" rx="27" fill="none"/>
    </g>
    <g id="Group_18021" data-name="Group 18021" transform="translate(-6211.358 18.694)">
      <g id="Group_18009" data-name="Group 18009" transform="translate(0 0)" clip-path="url(#clip-path-2)">
        <path id="Path_21569" data-name="Path 21569" d="M0,15.411l1.459-3.277a9.925,9.925,0,0,0,5.188,1.547c1.838,0,2.557-.517,2.557-1.276C9.2,9.911.268,11.729.268,5.893.268,3.087,2.56.8,7.229.8a11.743,11.743,0,0,1,5.7,1.37l-1.367,3.3a9.315,9.315,0,0,0-4.355-1.21c-1.864,0-2.537.628-2.537,1.413,0,2.406,8.913.608,8.913,6.4,0,2.74-2.292,5.074-6.961,5.074A12.371,12.371,0,0,1,0,15.411" transform="translate(0 1.224)" fill="#000e50"/>
        <path id="Path_21570" data-name="Path 21570" d="M18.917,2.323V14.49H14.853v-1.3a4.792,4.792,0,0,1-3.613,1.507c-2.985,0-5.163-1.707-5.163-5.568v-6.8h4.264v6.1c0,1.884.742,2.626,2.021,2.626,1.258,0,2.289-.831,2.289-2.874V2.323Z" transform="translate(9.311 3.56)" fill="#000e50"/>
        <path id="Path_21571" data-name="Path 21571" d="M25.859,8.529a5.9,5.9,0,0,1-5.971,6.285A4.548,4.548,0,0,1,16.5,13.535v5.431H12.234V2.447H16.3v1.21a4.389,4.389,0,0,1,3.591-1.413,5.9,5.9,0,0,1,5.971,6.285m-4.31,0a2.578,2.578,0,1,0-5.117,0,2.578,2.578,0,1,0,5.117,0" transform="translate(18.744 3.439)" fill="#000e50"/>
        <path id="Path_21572" data-name="Path 21572" d="M31.232,9.607H22.385a2.81,2.81,0,0,0,2.988,1.95,3.9,3.9,0,0,0,2.8-1.053l2.246,2.335a6.588,6.588,0,0,1-5.186,1.975c-4.332,0-7.138-2.671-7.138-6.308,0-3.659,2.851-6.262,6.69-6.262,3.593,0,6.51,2.289,6.51,6.308,0,.314-.046.717-.066,1.056M22.319,7.361H27.3a2.531,2.531,0,0,0-4.983,0" transform="translate(27.729 3.439)" fill="#000e50"/>
        <path id="Path_21573" data-name="Path 21573" d="M32.243,2.243V6.082a7.626,7.626,0,0,0-.965-.068c-1.727,0-2.92.876-2.92,3.011v5.588H24.1V2.446h4.064V3.9a4.979,4.979,0,0,1,4.084-1.661" transform="translate(36.917 3.437)" fill="#000e50"/>
        <path id="Path_21574" data-name="Path 21574" d="M34.141,10.934,32.48,12.706v3.93h-4.4V.922h4.4V7.455L38.564.922h4.892L37.037,7.883l6.756,8.754H38.63Z" transform="translate(43.02 1.413)" fill="#98c511"/>
        <path id="Path_21575" data-name="Path 21575" d="M34.4,2.269A2.358,2.358,0,0,1,37,0,2.311,2.311,0,0,1,39.6,2.2,2.367,2.367,0,0,1,37,4.535a2.355,2.355,0,0,1-2.6-2.266m.474,3.616h4.264V18.052H34.87Z" transform="translate(52.699 0.001)" fill="#ff6f00"/>
        <path id="Path_21576" data-name="Path 21576" d="M50.71.55V17.206H46.646V16a4.379,4.379,0,0,1-3.568,1.413c-3.322,0-5.994-2.426-5.994-6.308a5.886,5.886,0,0,1,5.994-6.264,4.45,4.45,0,0,1,3.368,1.256V.55ZM46.512,11.1c0-1.843-1.1-2.874-2.535-2.874a2.557,2.557,0,0,0-2.56,2.874c0,1.861,1.1,2.917,2.56,2.917,1.436,0,2.535-1.056,2.535-2.917" transform="translate(56.819 0.844)" fill="#009bdc"/>
        <path id="Path_21577" data-name="Path 21577" d="M43.17,13.557l1.279-2.917a8.539,8.539,0,0,0,4.244,1.122c1.436,0,1.909-.314,1.909-.831,0-1.641-7.184.225-7.184-4.646,0-2.289,2.109-4.041,5.925-4.041a10.671,10.671,0,0,1,4.8,1.033l-1.279,2.9a7.108,7.108,0,0,0-3.5-.9c-1.438,0-1.955.405-1.955.851,0,1.684,7.161-.132,7.161,4.695,0,2.246-2.064,4-6.016,4a11.15,11.15,0,0,1-5.386-1.258" transform="translate(66.142 3.437)" fill="#fd0924"/>
      </g>
    </g>
  </g>
</svg>
