<svg xmlns="http://www.w3.org/2000/svg" width="540" height="233.396" viewBox="0 0 540 233.396">
  <defs>
    <clipPath id="clip-path">
      <rect id="Rectangle_11731" data-name="Rectangle 11731" width="540" height="233.396" fill="none"/>
    </clipPath>
  </defs>
  <g id="Group_18005" data-name="Group 18005" clip-path="url(#clip-path)">
    <path id="Path_21145" data-name="Path 21145" d="M0,192.584,18.471,151.1c17.619,11.651,42.622,19.609,65.639,19.609,23.3,0,32.4-6.54,32.4-16.2,0-31.54-113.1-8.526-113.1-82.405,0-35.517,28.984-64.5,88.09-64.5,25.855,0,52.569,5.967,72.175,17.336L146.336,66.7C127.3,56.474,108.547,51.359,91.215,51.359c-23.586,0-32.109,7.957-32.109,17.9,0,30.4,112.807,7.675,112.807,80.984,0,34.665-28.984,64.217-88.09,64.217-32.674,0-65.069-8.809-83.823-21.878" transform="translate(0 18.933)" fill="#000e50"/>
    <path id="Path_21146" data-name="Path 21146" d="M137.186,7.995V91.332H109.354V82.411c-6.3,6.924-15.22,10.307-24.755,10.307-20.447,0-35.363-11.69-35.363-38.135V7.995H81.942L78.45,49.817c0,12.915,5.073,17.989,13.841,17.989,8.607,0,15.681-5.688,15.681-19.682L104.48,14.978Z" transform="translate(122.676 19.92)" fill="#000e50"/>
    <path id="Path_21147" data-name="Path 21147" d="M173.126,50.65c0,26.445-18.3,43.055-40.9,43.055-9.686,0-17.528-2.922-23.216-8.764v37.21H79.8V8.982h27.828v8.3c5.538-6.61,13.687-9.686,24.6-9.686,22.6,0,40.9,16.606,40.9,43.051" transform="translate(198.82 18.933)" fill="#ff6f00"/>
    <path id="Path_21148" data-name="Path 21148" d="M198.854,58.032H138.271c2.462,8.457,9.689,13.376,20.45,13.376,8.149,0,13.53-2.3,19.221-7.224l15.374,15.988c-8,8.921-19.679,13.533-35.517,13.533-29.675,0-48.9-18.3-48.9-43.209,0-25.063,19.528-42.9,45.82-42.9,24.6,0,44.591,15.684,44.591,43.205,0,2.154-.307,4.92-.461,7.228M137.81,42.655h34.134c-1.536-8.764-8-14.3-17.067-14.3s-15.377,5.534-17.067,14.3" transform="translate(271.342 18.933)" fill="#000e50"/>
    <path id="Path_21149" data-name="Path 21149" d="M194.488,9.1V35.4a53.263,53.263,0,0,0-6.613-.461c-11.84,0-19.989,6-19.989,20.6l3.492,38.289H138.671V10.487L166.5,7V20.48c6-7.535,15.684-11.376,27.985-11.376" transform="translate(345.512 17.428)" fill="#000e50"/>
    <path id="Path_21150" data-name="Path 21150" d="M87.272,103.981,75.892,116.128v26.91H45.757V35.4H75.892V80.147L117.561,35.4h33.519L107.107,83.073l46.281,59.965H118.022Z" transform="translate(114.007 88.208)" fill="#98c511"/>
    <path id="Path_21151" data-name="Path 21151" d="M93.8,35.4h50.894c35.674,0,60.122,20.758,60.122,53.816s-24.448,53.816-60.122,53.816H93.8Z" transform="translate(233.709 88.21)" fill="#009bdc"/>
    <path id="Path_21152" data-name="Path 21152" d="M128.014,134.884l9.993-22.447a67.9,67.9,0,0,0,35.52,10.607c12.608,0,17.528-3.534,17.528-8.764,0-17.067-61.2-4.612-61.2-44.588,0-19.225,15.684-34.906,47.667-34.906,13.991,0,28.446,3.23,39.054,9.382l-9.378,22.6c-10.3-5.534-20.45-8.3-29.829-8.3-12.762,0-17.374,4.305-17.374,9.686,0,16.456,61.04,4.152,61.04,43.82,0,18.764-15.684,34.752-47.664,34.752-17.681,0-35.213-4.77-45.359-11.84" transform="translate(318.959 86.675)" fill="#eb1328"/>
    <rect id="Rectangle_11730" data-name="Rectangle 11730" width="29.214" height="62.901" transform="translate(278.612 168.344)" fill="#ff6f00"/>
    <path id="Path_21153" data-name="Path 21153" d="M101.946,17.44a.437.437,0,1,1-.409-.461.437.437,0,0,1,.409.461" transform="translate(251.833 42.301)" fill="#bf4d00"/>
    <path id="Path_21154" data-name="Path 21154" d="M101.469,16.576a.373.373,0,1,1-.349-.395.372.372,0,0,1,.349.395" transform="translate(250.966 40.316)" fill="#bf4d00"/>
    <path id="Path_21155" data-name="Path 21155" d="M92.538,18.367A.568.568,0,0,1,91.4,18.3a.568.568,0,0,1,1.135.07" transform="translate(227.739 44.265)" fill="#bf4d00"/>
    <path id="Path_21156" data-name="Path 21156" d="M92.873,13.884a.261.261,0,0,1-.276.244.261.261,0,1,1,.031-.52.261.261,0,0,1,.244.276" transform="translate(230.104 33.905)" fill="#bf4d00"/>
    <path id="Path_21157" data-name="Path 21157" d="M94.581,14.537a.581.581,0,1,1-.545-.615.581.581,0,0,1,.545.615" transform="translate(232.767 34.687)" fill="#bf4d00"/>
    <path id="Path_21158" data-name="Path 21158" d="M94.886,18.445a.488.488,0,1,1-.457-.517.488.488,0,0,1,.457.517" transform="translate(233.988 44.668)" fill="#bf4d00"/>
    <path id="Path_21159" data-name="Path 21159" d="M98.187,17.643a.589.589,0,1,1-.552-.625.59.59,0,0,1,.552.625" transform="translate(241.707 42.398)" fill="#bf4d00"/>
    <path id="Path_21160" data-name="Path 21160" d="M94.577,13.563a.481.481,0,1,1-.45-.51.481.481,0,0,1,.45.51" transform="translate(233.253 32.522)" fill="#bf4d00"/>
    <path id="Path_21161" data-name="Path 21161" d="M100.035,17.824a.621.621,0,1,1-.583-.656.618.618,0,0,1,.583.656" transform="translate(246.157 42.772)" fill="#bf4d00"/>
    <path id="Path_21162" data-name="Path 21162" d="M97.219,16.956a.775.775,0,1,1-.726-.821.78.78,0,0,1,.726.821" transform="translate(238.372 40.201)" fill="#bf4d00"/>
    <path id="Path_21163" data-name="Path 21163" d="M96.108,17.349a.5.5,0,1,1-.468-.531.5.5,0,0,1,.468.531" transform="translate(236.963 41.903)" fill="#bf4d00"/>
    <path id="Path_21164" data-name="Path 21164" d="M95.074,17.2a.418.418,0,1,1-.391-.443.416.416,0,0,1,.391.443" transform="translate(234.805 41.743)" fill="#bf4d00"/>
    <path id="Path_21165" data-name="Path 21165" d="M94.348,16.227a.534.534,0,1,1-.5-.566.535.535,0,0,1,.5.566" transform="translate(232.421 39.02)" fill="#bf4d00"/>
    <path id="Path_21166" data-name="Path 21166" d="M93.621,15.462a.581.581,0,1,1-.545-.615.584.584,0,0,1,.545.615" transform="translate(230.375 36.991)" fill="#bf4d00"/>
    <path id="Path_21167" data-name="Path 21167" d="M92.881,16.369a.518.518,0,1,1-.485-.548.517.517,0,0,1,.485.548" transform="translate(228.845 39.416)" fill="#bf4d00"/>
    <path id="Path_21168" data-name="Path 21168" d="M92.91,15.928a.785.785,0,1,1-.737-.831.785.785,0,0,1,.737.831" transform="translate(227.584 37.612)" fill="#bf4d00"/>
    <path id="Path_21169" data-name="Path 21169" d="M92.055,16.434a.63.63,0,1,1-.59-.667.629.629,0,0,1,.59.667" transform="translate(226.229 39.281)" fill="#bf4d00"/>
    <path id="Path_21170" data-name="Path 21170" d="M91.1,17.6a.31.31,0,1,1-.29-.328.309.309,0,0,1,.29.328" transform="translate(225.432 43.029)" fill="#bf4d00"/>
    <path id="Path_21171" data-name="Path 21171" d="M102.687,16.374a.682.682,0,1,1-.639-.723.681.681,0,0,1,.639.723" transform="translate(252.458 38.992)" fill="#bf4d00"/>
    <path id="Path_21172" data-name="Path 21172" d="M90.436,18.053a.592.592,0,0,1-.618.548.584.584,0,1,1,.618-.548" transform="translate(222.412 43.437)" fill="#bf4d00"/>
    <path id="Path_21173" data-name="Path 21173" d="M94.927,15.469a.262.262,0,1,1-.244-.276.261.261,0,0,1,.244.276" transform="translate(235.214 37.854)" fill="#bf4d00"/>
    <path id="Path_21174" data-name="Path 21174" d="M88.88,17.121a.588.588,0,1,1-.552-.622.59.59,0,0,1,.552.622" transform="translate(218.527 41.108)" fill="#bf4d00"/>
    <path id="Path_21175" data-name="Path 21175" d="M88.38,17.241a.665.665,0,1,1-.622-.705.662.662,0,0,1,.622.705" transform="translate(216.897 41.197)" fill="#bf4d00"/>
    <path id="Path_21176" data-name="Path 21176" d="M87.306,17.271a.255.255,0,0,1-.272.237.252.252,0,0,1-.237-.269A.255.255,0,0,1,87.069,17a.252.252,0,0,1,.237.269" transform="translate(216.26 42.361)" fill="#bf4d00"/>
    <path id="Path_21177" data-name="Path 21177" d="M92.959,17.673a.311.311,0,1,1-.622-.038.311.311,0,0,1,.622.038" transform="translate(230.066 43.213)" fill="#bf4d00"/>
    <path id="Path_21178" data-name="Path 21178" d="M84.831,16.028a.339.339,0,1,1-.318-.36.344.344,0,0,1,.318.36" transform="translate(209.675 39.038)" fill="#bf4d00"/>
    <path id="Path_21179" data-name="Path 21179" d="M85.846,17.426a.609.609,0,1,1-.569-.646.609.609,0,0,1,.569.646" transform="translate(210.863 41.805)" fill="#bf4d00"/>
    <path id="Path_21180" data-name="Path 21180" d="M104.147,10.66c-.559.615-4.668-2.371-9.916-1.868-5.265.258-8.9,3.809-9.543,3.282-.29-.227.182-1.652,1.781-3.149A12.529,12.529,0,0,1,101.93,7.8c1.8,1.253,2.472,2.591,2.217,2.86" transform="translate(210.809 14.056)" fill="#ff7f00"/>
    <path id="Path_21181" data-name="Path 21181" d="M94.89,6.025a13.707,13.707,0,0,1,11.379,4.33,13.688,13.688,0,0,0-22.015,1.6A13.714,13.714,0,0,1,94.89,6.025" transform="translate(209.93 13.797)" fill="#e25b00"/>
    <path id="Path_21182" data-name="Path 21182" d="M115.238,12.246c-.632.538-4.326-2.95-9.595-3.125-5.255-.416-9.316,2.64-9.881,2.036-.262-.265.388-1.613,2.165-2.895a12.515,12.515,0,0,1,15.478.866c1.627,1.473,2.123,2.884,1.833,3.118" transform="translate(238.461 14.905)" fill="#ff7f00"/>
    <path id="Path_21183" data-name="Path 21183" d="M106.669,6.35A13.707,13.707,0,0,1,117.4,12.1a13.69,13.69,0,0,0-22.039-1.233A13.692,13.692,0,0,1,106.669,6.35" transform="translate(237.606 14.648)" fill="#e25b00"/>
    <path id="Path_21184" data-name="Path 21184" d="M100.287,1.577C96.9-.165,95.192,4.88,98.164,6.13c10.946,4.612,14.6,9.1,17.126,14.469,0,0-1-11.826-15-19.022" transform="translate(240.773 3.028)" fill="#e25b00"/>
    <path id="Path_21185" data-name="Path 21185" d="M100.216,1.146c-3.5-1.512-4.976,3.481-1.962,4.626,11.1,4.221,14.333,10.433,17.046,15.709,0,0-1.187-14.316-15.084-20.335" transform="translate(240.76 2.15)"/>
    <path id="Path_21186" data-name="Path 21186" d="M100.828.694A2.512,2.512,0,1,1,102.4,5.46C91,8.753,87.287,11.769,84.152,16.8c0,0,1.477-11.526,16.676-16.107" transform="translate(209.673 1.338)" fill="#e25b00"/>
    <path id="Path_21187" data-name="Path 21187" d="M101.417.153c3.645-1.093,4.529,4.036,1.4,4.822-11.508,2.888-15.44,8.67-18.75,13.586,0,0,2.856-14.061,17.346-18.408" transform="translate(209.471 0.001)"/>
    <path id="Path_21188" data-name="Path 21188" d="M125.248,23.08a15.6,15.6,0,1,1-15.6-15.6,15.6,15.6,0,0,1,15.6,15.6" transform="translate(234.337 18.637)" fill="#e25b00"/>
    <path id="Path_21189" data-name="Path 21189" d="M122.895,22.29A14.225,14.225,0,1,1,108.67,8.065,14.225,14.225,0,0,1,122.895,22.29" transform="translate(235.319 20.094)" fill="#edf8f9"/>
    <path id="Path_21190" data-name="Path 21190" d="M108.087,16.925a6.267,6.267,0,1,1-6.267-6.267,6.269,6.269,0,0,1,6.267,6.267" transform="translate(238.077 26.555)"/>
    <path id="Path_21191" data-name="Path 21191" d="M107.072,16.5a5.676,5.676,0,1,1-5.674-5.674,5.676,5.676,0,0,1,5.674,5.674" transform="translate(238.498 26.979)" fill="#29b6f6"/>
    <path id="Path_21192" data-name="Path 21192" d="M106.274,16.171l-3.174.416,2.765,1.613-3.08-.869,1.962,2.524L102.224,17.9l.869,3.076-1.613-2.765-.415,3.174-.412-3.174-1.617,2.765.869-3.076-2.524,1.959L99.34,17.33l-3.076.869,2.765-1.613-3.174-.416,3.174-.412-2.765-1.617,3.076.869-1.959-2.524,2.524,1.959-.869-3.076,1.617,2.765.412-3.174.415,3.174,1.613-2.765-.869,3.076,2.524-1.959-1.962,2.524,3.08-.869L103.1,15.759Z" transform="translate(238.832 27.311)" fill="#0277bd"/>
    <path id="Path_21193" data-name="Path 21193" d="M100.975,13.963a2.118,2.118,0,1,1-2.116-2.116,2.117,2.117,0,0,1,2.116,2.116" transform="translate(241.037 29.518)"/>
    <path id="Path_21194" data-name="Path 21194" d="M96.564,12.2c.157,1.089.807,2.078,3.191,2.231a9.324,9.324,0,0,1,8.411,8.554c.353,5.412,8.872,3.08,8.195-3.778-.646-6.5-8.39-12.744-16.62-10.276-1.4.422-3.429,1.5-3.177,3.268" transform="translate(240.546 20.874)" fill="#fff"/>
    <path id="Path_21195" data-name="Path 21195" d="M103.241,13.689A2.891,2.891,0,1,1,100.35,10.8a2.892,2.892,0,0,1,2.891,2.891" transform="translate(242.829 26.904)" fill="#fff"/>
    <path id="Path_21196" data-name="Path 21196" d="M99.679,14.414A1.714,1.714,0,1,1,97.964,12.7a1.715,1.715,0,0,1,1.714,1.714" transform="translate(239.816 31.643)" fill="#fff"/>
    <path id="Path_21197" data-name="Path 21197" d="M83.062,23.462A16.348,16.348,0,1,0,99.41,7.114,16.347,16.347,0,0,0,83.062,23.462" transform="translate(206.957 17.725)" fill="#e25b00"/>
    <path id="Path_21198" data-name="Path 21198" d="M83.474,22.694A14.909,14.909,0,1,0,98.383,7.785,14.91,14.91,0,0,0,83.474,22.694" transform="translate(207.984 19.397)" fill="#edf8f9"/>
    <path id="Path_21199" data-name="Path 21199" d="M87.091,17.072A6.569,6.569,0,1,0,93.659,10.5a6.57,6.57,0,0,0-6.568,6.568" transform="translate(216.996 26.171)"/>
    <path id="Path_21200" data-name="Path 21200" d="M87.269,16.628a5.948,5.948,0,1,0,5.946-5.946,5.944,5.944,0,0,0-5.946,5.946" transform="translate(217.439 26.615)" fill="#29b6f6"/>
    <path id="Path_21201" data-name="Path 21201" d="M87.408,16.281l3.327.433-2.9,1.693,3.226-.911-2.057,2.647,2.647-2.057-.911,3.226,1.69-2.9.436,3.328.433-3.328L95,21.313l-.911-3.226,2.647,2.057L94.674,17.5l3.226.911L95,16.714l3.328-.433L95,15.848l2.9-1.693-3.226.911,2.057-2.647-2.647,2.057L95,11.25l-1.693,2.9-.433-3.328-.436,3.328-1.69-2.9.911,3.226L89.007,12.42l2.057,2.647-3.226-.911,2.9,1.693Z" transform="translate(217.786 26.96)" fill="#0277bd"/>
    <path id="Path_21202" data-name="Path 21202" d="M88.336,13.97a2.219,2.219,0,1,0,2.221-2.221,2.219,2.219,0,0,0-2.221,2.221" transform="translate(220.098 29.273)"/>
    <path id="Path_21203" data-name="Path 21203" d="M104.642,12.117c-.164,1.142-.845,2.179-3.345,2.339a9.775,9.775,0,0,0-8.816,8.963c-.37,5.674-9.3,3.226-8.586-3.959.674-6.816,8.792-13.355,17.416-10.768,1.47.44,3.6,1.575,3.331,3.425" transform="translate(208.931 20.215)" fill="#fff"/>
    <path id="Path_21204" data-name="Path 21204" d="M89.118,13.789a3.031,3.031,0,1,0,3.031-3.031,3.03,3.03,0,0,0-3.031,3.031" transform="translate(222.046 26.804)" fill="#fff"/>
    <path id="Path_21205" data-name="Path 21205" d="M91.336,14.414A1.714,1.714,0,1,1,89.621,12.7a1.715,1.715,0,0,1,1.714,1.714" transform="translate(219.029 31.643)" fill="#fff"/>
    <path id="Path_21206" data-name="Path 21206" d="M114.313,50.893c11.795.436,21.7-6.281,28.058-15.838,2.455-3.691,6.177-9.944,5.189-14.33-.824-3.649-6.233.737-7.888,1.631-9.6,5.182-21.623,8.366-32.311,5.932-6.079-1.383-11.913-4.445-17.07-7.818-1.442-.943-3.712-3.188-5.283-2.123-3.223,2.189,1.128,12.315,2.7,15.157,5.36,9.714,15.325,16.973,26.609,17.388" transform="translate(208.915 45.017)" fill="#ff9100"/>
    <path id="Path_21207" data-name="Path 21207" d="M114.968,50.066c11.84.363,22.21-5.81,28.921-15.342,2.566-3.649,6.114-10.625,5.346-14.312-.782-3.753-6.414.751-8.128,1.662-9.906,5.276-22.3,8.38-33.3,5.95-6.257-1.383-12.276-4.469-17.594-7.9-1.494-.964-3.816-3.251-5.443-2.165-3.387,2.259,1.3,12.73,2.978,15.583,5.681,9.612,15.988,16.184,27.224,16.529" transform="translate(208.211 44.021)" fill="#540000"/>
    <path id="Path_21208" data-name="Path 21208" d="M86.908,26.774C89.121,29,93.95,31.159,96.974,28.8a14.813,14.813,0,0,0,3.446-4.068,68.448,68.448,0,0,1-12.943-6.072c-2.343,2.811-3.146,5.52-.569,8.111" transform="translate(212.563 46.5)" fill="#fff8e1"/>
    <path id="Path_21209" data-name="Path 21209" d="M92.359,26.5c2.549,1.627,8.691,1.236,11.7.4,1.267-.353,1.655-1.386,2.036-2.535a8.766,8.766,0,0,0,.381-3.778,47.708,47.708,0,0,1-15.174.587c-.293,1.732-.464,4.354,1.058,5.325" transform="translate(226.997 51.292)" fill="#fff8e1"/>
    <path id="Path_21210" data-name="Path 21210" d="M104.286,27.8c2.559-.782,7.235-2.315,6.362-5.911a8.453,8.453,0,0,0-1.767-3.341,24.814,24.814,0,0,1-2.116,1.323,74.168,74.168,0,0,1-9.417,4.047c1.323,3.038,3.453,4.948,6.938,3.883" transform="translate(242.552 46.224)" fill="#fff8e1"/>
    <path id="Path_21211" data-name="Path 21211" d="M87.416,18.662a8.568,8.568,0,0,0-2.078,3.883,14.259,14.259,0,0,1,10.506,4.564,2.99,2.99,0,0,1,.789,1.9c.094-.063.185-.133.276-.2a14.968,14.968,0,0,0,3.446-4.068,68.33,68.33,0,0,1-12.94-6.075" transform="translate(212.628 46.498)" fill="#eadcb9"/>
    <path id="Path_21212" data-name="Path 21212" d="M106.47,20.586a47.712,47.712,0,0,1-15.174.587,10.816,10.816,0,0,0-.119,3.135l.143-.042a20.512,20.512,0,0,1,13.5.37,1.592,1.592,0,0,1,.883.744,10.665,10.665,0,0,0,.384-1.016,8.825,8.825,0,0,0,.381-3.778" transform="translate(227.002 51.292)" fill="#eadcb9"/>
    <path id="Path_21213" data-name="Path 21213" d="M108.881,18.552a113.915,113.915,0,0,1-11.533,5.37,8.329,8.329,0,0,0,1.767,2.758,2.9,2.9,0,0,1,.084-.74,1.7,1.7,0,0,1,.765-.925c3.544-1.812,6.746-3.31,10.782-2.455a4.273,4.273,0,0,0-.1-.667,8.274,8.274,0,0,0-1.767-3.341" transform="translate(242.552 46.224)" fill="#eadcb9"/>
    <path id="Path_21214" data-name="Path 21214" d="M122.053,28.235c-8.593-6.8-29.822-8.781-33.91,4.225a29.28,29.28,0,0,0,15.419,4.71,30.564,30.564,0,0,0,20.691-6.816,15.639,15.639,0,0,0-2.2-2.119" transform="translate(219.617 57.05)" fill="#f06292"/>
    <path id="Path_21215" data-name="Path 21215" d="M105.086,28.949c-.353,3.327-5.894,3.425-8.17,3.111-2.221-.307-7.671-1.83-7.332-5,.328-3.034,5.964-3.066,8.174-2.825,2.329.255,7.664,1.54,7.329,4.71" transform="translate(223.169 60.167)" fill="#ff78ac"/>
    <path id="Path_21216" data-name="Path 21216" d="M86.563,16.712c0,1.04,1.435,1.885,3.2,1.885s3.2-.845,3.2-1.885-1.432-1.885-3.2-1.885-3.2.845-3.2,1.885" transform="translate(215.68 36.943)" fill="#fff"/>
    <path id="Path_21217" data-name="Path 21217" d="M103.26,16.582c0,1-1.369,1.8-3.055,1.8s-3.055-.8-3.055-1.8,1.365-1.8,3.055-1.8,3.055.8,3.055,1.8" transform="translate(242.059 36.835)" fill="#fff"/>
    <path id="Path_21218" data-name="Path 21218" d="M106.659,45.17a.323.323,0,0,0-.454-.066.323.323,0,1,0,.454.066" transform="translate(264.299 112.22)" fill="#213480"/>
    <path id="Path_21219" data-name="Path 21219" d="M108.542,42.591a.466.466,0,1,0-.5-.433.467.467,0,0,0,.5.433" transform="translate(269.196 103.801)" fill="#213480"/>
    <path id="Path_21220" data-name="Path 21220" d="M110.5,45.787a.343.343,0,1,0-.471-.122.349.349,0,0,0,.471.122" transform="translate(274.021 112.49)" fill="#213480"/>
    <path id="Path_21221" data-name="Path 21221" d="M109.777,40.676a.455.455,0,0,0-.374-.524.45.45,0,0,0-.524.37.455.455,0,1,0,.9.154" transform="translate(271.268 100.025)" fill="#213480"/>
    <path id="Path_21222" data-name="Path 21222" d="M108.452,45.484a.518.518,0,1,0-.108.726.518.518,0,0,0,.108-.726" transform="translate(267.893 112.811)" fill="#213480"/>
    <path id="Path_21223" data-name="Path 21223" d="M106.129,41.406a.584.584,0,0,0,1.009-.587.584.584,0,0,0-1.009.587" transform="translate(264.235 100.981)" fill="#213480"/>
    <path id="Path_21224" data-name="Path 21224" d="M110.25,46.982a.632.632,0,1,0-.587.674.63.63,0,0,0,.587-.674" transform="translate(271.556 115.594)" fill="#213480"/>
    <path id="Path_21225" data-name="Path 21225" d="M107.991,44.248a.548.548,0,1,0-.115.768.544.544,0,0,0,.115-.768" transform="translate(266.608 109.696)" fill="#213480"/>
    <path id="Path_21226" data-name="Path 21226" d="M108.253,49.26a.416.416,0,1,0-.443-.384.413.413,0,0,0,.443.384" transform="translate(268.616 120.662)" fill="#213480"/>
    <path id="Path_21227" data-name="Path 21227" d="M108.025,44.406a.277.277,0,1,0,.447-.328.277.277,0,1,0-.447.328" transform="translate(269.019 109.541)" fill="#213480"/>
    <path id="Path_21228" data-name="Path 21228" d="M108.46,46.97a.3.3,0,1,0-.6.042.3.3,0,0,0,.321.279.3.3,0,0,0,.283-.321" transform="translate(268.733 116.324)" fill="#213480"/>
    <path id="Path_21229" data-name="Path 21229" d="M105.572,48.094a.313.313,0,0,0-.618-.1.318.318,0,0,0,.255.363.314.314,0,0,0,.363-.258" transform="translate(261.493 118.923)" fill="#213480"/>
    <path id="Path_21230" data-name="Path 21230" d="M104.817,46.944a.291.291,0,0,0-.314-.272.294.294,0,1,0,.314.272" transform="translate(259.689 116.284)" fill="#213480"/>
    <path id="Path_21231" data-name="Path 21231" d="M106.819,45.97a.656.656,0,1,0-.611.7.656.656,0,0,0,.611-.7" transform="translate(262.885 113.012)" fill="#213480"/>
    <path id="Path_21232" data-name="Path 21232" d="M106.116,43.467a.391.391,0,1,0-.08.545.386.386,0,0,0,.08-.545" transform="translate(262.642 107.911)" fill="#213480"/>
    <path id="Path_21233" data-name="Path 21233" d="M107.149,41.285a.324.324,0,0,0,.443.115.322.322,0,1,0-.443-.115" transform="translate(266.864 101.657)" fill="#213480"/>
    <path id="Path_21234" data-name="Path 21234" d="M108.064,40.837a.359.359,0,1,0,.416-.293.36.36,0,0,0-.416.293" transform="translate(269.241 101.006)" fill="#213480"/>
    <path id="Path_21235" data-name="Path 21235" d="M109.182,50.139a.563.563,0,1,0,.524-.6.56.56,0,0,0-.524.6" transform="translate(272.034 123.425)" fill="#213480"/>
    <path id="Path_21236" data-name="Path 21236" d="M109.077,64.647a.369.369,0,1,0,.342-.395.368.368,0,0,0-.342.395" transform="translate(271.773 160.089)" fill="#213480"/>
    <path id="Path_21237" data-name="Path 21237" d="M109.548,63.042a.491.491,0,0,0,.527.457.493.493,0,1,0-.527-.457" transform="translate(272.946 155.758)" fill="#213480"/>
    <path id="Path_21238" data-name="Path 21238" d="M106.278,61.655a.409.409,0,1,0,.381-.436.41.41,0,0,0-.381.436" transform="translate(264.799 152.53)" fill="#213480"/>
    <path id="Path_21239" data-name="Path 21239" d="M108.064,59.452a.409.409,0,1,0,.817-.056.409.409,0,1,0-.817.056" transform="translate(269.249 147.041)" fill="#213480"/>
    <path id="Path_21240" data-name="Path 21240" d="M107.191,63.074a.586.586,0,1,0,.545-.625.584.584,0,0,0-.545.625" transform="translate(267.073 155.594)" fill="#213480"/>
    <path id="Path_21241" data-name="Path 21241" d="M107.146,38.557a.433.433,0,1,0-.161.59.431.431,0,0,0,.161-.59" transform="translate(264.953 95.534)" fill="#213480"/>
    <path id="Path_21242" data-name="Path 21242" d="M107.8,39.589a.526.526,0,1,0-.429-.6.523.523,0,0,0,.429.6" transform="translate(267.5 96.039)" fill="#213480"/>
    <path id="Path_21243" data-name="Path 21243" d="M107.673,39.867a.367.367,0,1,0-.133.5.366.366,0,0,0,.133-.5" transform="translate(266.571 98.878)" fill="#213480"/>
    <path id="Path_21244" data-name="Path 21244" d="M110.174,39.961a.608.608,0,0,0-1.2-.206.608.608,0,0,0,1.2.206" transform="translate(271.503 97.796)" fill="#213480"/>
    <path id="Path_21245" data-name="Path 21245" d="M108,42.506a.612.612,0,1,0-.569.653.611.611,0,0,0,.569-.653" transform="translate(266.044 104.486)" fill="#213480"/>
    <path id="Path_21246" data-name="Path 21246" d="M106.983,37.281a.3.3,0,1,0-.279.321.3.3,0,0,0,.279-.321" transform="translate(265.061 92.191)" fill="#213480"/>
    <path id="Path_21247" data-name="Path 21247" d="M105.832,38.445a.289.289,0,1,0-.1.395.287.287,0,0,0,.1-.395" transform="translate(262.347 95.429)" fill="#213480"/>
    <path id="Path_21248" data-name="Path 21248" d="M108.394,40.819a.492.492,0,1,0-.405-.566.493.493,0,0,0,.405.566" transform="translate(269.048 99.267)" fill="#213480"/>
    <path id="Path_21249" data-name="Path 21249" d="M108.966,38.326a.476.476,0,1,0-.548.391.478.478,0,0,0,.548-.391" transform="translate(269.142 94.11)" fill="#213480"/>
    <path id="Path_21250" data-name="Path 21250" d="M107.867,50.519a.88.88,0,1,0-1.016.719.883.883,0,0,0,1.016-.719" transform="translate(264.407 123.31)" fill="#213480"/>
    <path id="Path_21251" data-name="Path 21251" d="M110.034,55.565a.635.635,0,1,0-.59.677.636.636,0,0,0,.59-.677" transform="translate(271 136.972)" fill="#213480"/>
    <path id="Path_21252" data-name="Path 21252" d="M106.811,59.769a.574.574,0,1,0-.534.611.571.571,0,0,0,.534-.611" transform="translate(263.274 147.593)" fill="#213480"/>
    <path id="Path_21253" data-name="Path 21253" d="M107.973,56.554a.271.271,0,1,0-.251.29.275.275,0,0,0,.251-.29" transform="translate(267.674 140.281)" fill="#213480"/>
    <path id="Path_21254" data-name="Path 21254" d="M108.519,56.765a.262.262,0,0,0,.244-.279.262.262,0,1,0-.524.035.264.264,0,0,0,.279.244" transform="translate(269.688 140.122)" fill="#213480"/>
    <path id="Path_21255" data-name="Path 21255" d="M110.616,55.614a.29.29,0,1,0-.269.311.288.288,0,0,0,.269-.311" transform="translate(274.165 137.894)" fill="#213480"/>
    <path id="Path_21256" data-name="Path 21256" d="M106.978,60.94a.563.563,0,1,0-.6-.524.563.563,0,0,0,.6.524" transform="translate(265.045 149.031)" fill="#213480"/>
    <path id="Path_21257" data-name="Path 21257" d="M108.953,54.478a.356.356,0,0,0-.377-.325.352.352,0,0,0,.045.7.358.358,0,0,0,.332-.377" transform="translate(269.707 134.926)" fill="#213480"/>
    <path id="Path_21258" data-name="Path 21258" d="M106.238,58.334a.291.291,0,1,0-.269.311.29.29,0,0,0,.269-.311" transform="translate(263.257 144.674)" fill="#213480"/>
    <path id="Path_21259" data-name="Path 21259" d="M107.371,59.627a.343.343,0,0,0,.318-.363.347.347,0,0,0-.363-.318.341.341,0,0,0,.045.681" transform="translate(266.618 146.869)" fill="#213480"/>
    <path id="Path_21260" data-name="Path 21260" d="M106.3,58.953a.458.458,0,1,0-.426.489.46.46,0,0,0,.426-.489" transform="translate(262.581 145.822)" fill="#213480"/>
    <path id="Path_21261" data-name="Path 21261" d="M107.356,57.3a.326.326,0,0,0-.346-.3.321.321,0,0,0-.3.346.322.322,0,0,0,.642-.045" transform="translate(265.885 142.015)" fill="#213480"/>
    <path id="Path_21262" data-name="Path 21262" d="M110.384,56.688a.448.448,0,1,0-.416.475.444.444,0,0,0,.416-.475" transform="translate(272.802 140.206)" fill="#213480"/>
    <path id="Path_21263" data-name="Path 21263" d="M107.324,63.415a.516.516,0,0,0-1.03.07.516.516,0,1,0,1.03-.07" transform="translate(264.838 156.81)" fill="#213480"/>
    <path id="Path_21264" data-name="Path 21264" d="M107.592,63.832a.357.357,0,1,0-.332.381.356.356,0,0,0,.332-.381" transform="translate(266.299 158.215)" fill="#213480"/>
    <path id="Path_21265" data-name="Path 21265" d="M109.469,58.383a.452.452,0,1,0-.482-.419.453.453,0,0,0,.482.419" transform="translate(271.551 143.218)" fill="#213480"/>
    <path id="Path_21266" data-name="Path 21266" d="M106.968,64.785a.616.616,0,1,0-.573.656.619.619,0,0,0,.573-.656" transform="translate(263.455 159.989)" fill="#213480"/>
    <path id="Path_21267" data-name="Path 21267" d="M108.166,58.257a.668.668,0,1,0-.621.712.668.668,0,0,0,.621-.712" transform="translate(266.178 143.599)" fill="#213480"/>
    <path id="Path_21268" data-name="Path 21268" d="M109.26,57.72a.39.39,0,1,0-.363.415.388.388,0,0,0,.363-.415" transform="translate(270.29 142.907)" fill="#213480"/>
    <path id="Path_21269" data-name="Path 21269" d="M108.7,62.077a.35.35,0,0,0-.192-.656.348.348,0,0,0-.248.129.4.4,0,0,0,.087.8.405.405,0,0,0,.353-.269" transform="translate(268.893 153.033)" fill="#213480"/>
    <path id="Path_21270" data-name="Path 21270" d="M109.887,62.422a.628.628,0,1,0-.58.667.628.628,0,0,0,.58-.667" transform="translate(270.666 154.081)" fill="#213480"/>
    <path id="Path_21271" data-name="Path 21271" d="M106.655,57.469a.425.425,0,1,0-.395.454.428.428,0,0,0,.395-.454" transform="translate(263.625 142.204)" fill="#213480"/>
    <path id="Path_21272" data-name="Path 21272" d="M109.767,54.216a.547.547,0,0,0-.583-.506.546.546,0,0,0,.077,1.089.547.547,0,0,0,.506-.583" transform="translate(270.776 133.82)" fill="#213480"/>
    <path id="Path_21273" data-name="Path 21273" d="M111.165,51.685a.467.467,0,1,0-.436.5.469.469,0,0,0,.436-.5" transform="translate(274.653 127.695)" fill="#213480"/>
    <path id="Path_21274" data-name="Path 21274" d="M107.045,52.052a.306.306,0,1,0-.353.251.305.305,0,0,0,.353-.251" transform="translate(265.198 128.802)" fill="#213480"/>
    <path id="Path_21275" data-name="Path 21275" d="M109.1,52.44a.452.452,0,1,0-.419.482.45.45,0,0,0,.419-.482" transform="translate(269.592 129.612)" fill="#213480"/>
    <path id="Path_21276" data-name="Path 21276" d="M107,56.942a.516.516,0,1,0-.478.548.513.513,0,0,0,.478-.548" transform="translate(264.024 140.682)" fill="#213480"/>
    <path id="Path_21277" data-name="Path 21277" d="M105.739,52.746a.354.354,0,1,0-.409.293.36.36,0,0,0,.409-.293" transform="translate(261.706 130.388)" fill="#213480"/>
    <path id="Path_21278" data-name="Path 21278" d="M108.507,50.174a.553.553,0,1,0-.2.758.553.553,0,0,0,.2-.758" transform="translate(267.786 124.329)" fill="#213480"/>
    <path id="Path_21279" data-name="Path 21279" d="M108.644,51.308a.285.285,0,1,0-.265.3.285.285,0,0,0,.265-.3" transform="translate(269.276 127.175)" fill="#213480"/>
    <path id="Path_21280" data-name="Path 21280" d="M108.764,53.287a.621.621,0,1,0-.576.663.619.619,0,0,0,.576-.663" transform="translate(267.903 131.328)" fill="#213480"/>
    <path id="Path_21281" data-name="Path 21281" d="M106.822,49.112a.37.37,0,0,0-.3-.422.367.367,0,0,0-.126.723.37.37,0,0,0,.423-.3" transform="translate(264.352 121.302)" fill="#213480"/>
    <path id="Path_21282" data-name="Path 21282" d="M106.251,51.336a.489.489,0,1,0-.562.4.489.489,0,0,0,.562-.4" transform="translate(262.315 126.491)" fill="#213480"/>
    <path id="Path_21283" data-name="Path 21283" d="M111.056,50.777a.532.532,0,1,0-.492.566.532.532,0,0,0,.492-.566" transform="translate(274.06 125.276)" fill="#213480"/>
    <path id="Path_21284" data-name="Path 21284" d="M109.154,52.876a.439.439,0,1,0-.409.468.438.438,0,0,0,.409-.468" transform="translate(269.782 130.725)" fill="#213480"/>
    <path id="Path_21285" data-name="Path 21285" d="M105.529,54.906a.343.343,0,1,0-.318.367.344.344,0,0,0,.318-.367" transform="translate(261.228 136.01)" fill="#213480"/>
    <path id="Path_21286" data-name="Path 21286" d="M107.568,55.809a.42.42,0,1,0-.391.45.418.418,0,0,0,.391-.45" transform="translate(265.925 138.086)" fill="#213480"/>
    <path id="Path_21287" data-name="Path 21287" d="M105.737,48.92a.375.375,0,1,0-.433.307.376.376,0,0,0,.433-.307" transform="translate(261.596 120.796)" fill="#213480"/>
    <path id="Path_21288" data-name="Path 21288" d="M110.963,39.319c.957.775-9.3,13.994,3,29.462.346.433-1.774-.869-4.124-3.115a18.588,18.588,0,0,1-2.933-22.832c1.711-2.769,3.635-3.872,4.057-3.516" transform="translate(259.726 97.806)" fill="#85ceff"/>
    <path id="Path_21289" data-name="Path 21289" d="M110.03,38.946c-.594,1.428-6.878,15.978,4.9,28.729-6.655-.618-12.482-6.9-13.188-12.926-.8-6.854,2.989-13.5,8.286-15.8" transform="translate(253.24 97.037)" fill="#85ceff"/>
    <path id="Path_21290" data-name="Path 21290" d="M105.346,55.985c-.88-6.854,1.376-13.251,5.489-17.228-4.5,3.715-7.591,9.577-6.795,17.448.772,7.647,5.674,12.053,10.967,14.508a19.319,19.319,0,0,1-9.661-14.728" transform="translate(258.915 96.566)" fill="#213480"/>
    <path id="Path_21291" data-name="Path 21291" d="M104.281,55.368c-.367-7.444,2.36-14.127,6.76-18.031-4.77,3.593-7.8,10.4-7.423,18.066S107.1,69.54,112.2,72.648c-4.759-3.453-7.552-9.836-7.919-17.28" transform="translate(258.095 93.028)" fill="#213480"/>
    <path id="Path_21292" data-name="Path 21292" d="M106.182,50.753c1.072-5.454,4.124-9.825,7.828-11.9-3.9,1.784-7.186,6.2-8.289,11.812s.063,11.644,2.783,14.989a21.027,21.027,0,0,1-2.322-14.9" transform="translate(262.384 96.808)" fill="#213480"/>
    <path id="Path_21293" data-name="Path 21293" d="M93.4,55.817c-2.1,3.684,3.429,5.827,4.965,2.58,5.66-11.952,10.831-15.8,16.927-18.348,0,0-13.205.534-21.892,15.768" transform="translate(231.547 99.786)" fill="#85ceff"/>
    <path id="Path_21294" data-name="Path 21294" d="M92.917,55.841c-1.854,3.816,3.631,5.705,5.052,2.406,5.237-12.144,12.3-15.433,18.3-18.2,0,0-15.981.625-23.355,15.792" transform="translate(230.569 99.786)"/>
    <path id="Path_21295" data-name="Path 21295" d="M93.663,59.7a2.8,2.8,0,1,1,5.1-2.273c4.92,12.262,8.677,16.04,14.6,18.956,0,0-12.933-.353-19.7-16.683" transform="translate(232.619 138.645)" fill="#85ceff"/>
    <path id="Path_21296" data-name="Path 21296" d="M93.047,59.559c-1.617-3.918,3.966-5.468,5.185-2.091,4.483,12.43,11.327,16.138,17.144,19.26,0,0-15.9-1.6-22.329-17.168" transform="translate(231.11 138.564)"/>
    <path id="Path_21297" data-name="Path 21297" d="M145.478,77.733c.482-13.107-6.98-24.113-17.6-31.18-4.1-2.727-11.051-6.864-15.925-5.765-4.054.915.821,6.924,1.816,8.764,5.754,10.667,9.295,24.029,6.592,35.9-1.54,6.756-4.937,13.24-8.687,18.97-1.051,1.6-3.547,4.127-2.36,5.873,2.434,3.582,13.687-1.257,16.843-3,10.8-5.96,18.862-17.032,19.322-29.57" transform="translate(271.582 101.176)" fill="#85ceff"/>
    <path id="Path_21298" data-name="Path 21298" d="M144.556,78.513c.405-13.156-6.456-24.682-17.049-32.137-4.054-2.853-11.805-6.795-15.9-5.943-4.172.869.834,7.126,1.847,9.033,5.862,11.006,9.309,24.78,6.61,37.007-1.536,6.955-4.969,13.642-8.785,19.553-1.068,1.659-3.607,4.242-2.4,6.051,2.507,3.764,14.144-1.442,17.311-3.314,10.681-6.313,17.985-17.765,18.369-30.251" transform="translate(270.48 100.449)" fill="#33003f"/>
    <path id="Path_21299" data-name="Path 21299" d="M118.679,69.514c2.465-2.458,4.871-7.828,2.252-11.187a16.4,16.4,0,0,0-4.522-3.827,75.95,75.95,0,0,1-6.749,14.382c3.128,2.6,6.138,3.5,9.019.632" transform="translate(273.229 135.792)" fill="#fff8e1"/>
    <path id="Path_21300" data-name="Path 21300" d="M118.366,63.712c1.805-2.832,1.372-9.658.443-13-.388-1.407-1.54-1.84-2.814-2.263a9.765,9.765,0,0,0-4.2-.422,53.072,53.072,0,0,1,.649,16.861c1.924.325,4.839.517,5.918-1.173" transform="translate(278.556 119.499)" fill="#fff8e1"/>
    <path id="Path_21301" data-name="Path 21301" d="M119.82,48.855c-.866-2.842-2.573-8.041-6.571-7.07a9.426,9.426,0,0,0-3.712,1.962,27.639,27.639,0,0,1,1.47,2.353,81.616,81.616,0,0,1,4.5,10.464c3.376-1.47,5.5-3.837,4.316-7.709" transform="translate(272.922 103.814)" fill="#fff8e1"/>
    <path id="Path_21302" data-name="Path 21302" d="M109.66,68.882a9.628,9.628,0,0,0,4.312,2.311,15.873,15.873,0,0,1,5.077-11.683,3.317,3.317,0,0,1,2.105-.873c-.07-.1-.143-.21-.223-.311a16.554,16.554,0,0,0-4.522-3.827,75.95,75.95,0,0,1-6.749,14.382" transform="translate(273.229 135.792)" fill="#eadcb9"/>
    <path id="Path_21303" data-name="Path 21303" d="M111.8,48.023a58.353,58.353,0,0,1,.649,16.864,12.248,12.248,0,0,0,3.485.129c-.014-.049-.031-.1-.045-.157a22.771,22.771,0,0,1,.412-15,1.758,1.758,0,0,1,.827-.985A10.925,10.925,0,0,0,116,48.449a9.772,9.772,0,0,0-4.2-.426" transform="translate(278.558 119.5)" fill="#eadcb9"/>
    <path id="Path_21304" data-name="Path 21304" d="M109.537,43.74A125.85,125.85,0,0,1,115.5,56.557a9.267,9.267,0,0,0,3.062-1.966,3.062,3.062,0,0,1-.817-.094,1.872,1.872,0,0,1-1.03-.848c-2.015-3.939-3.677-7.5-2.727-11.98a4.5,4.5,0,0,0-.744.108,9.157,9.157,0,0,0-3.712,1.962" transform="translate(272.922 103.822)" fill="#eadcb9"/>
    <path id="Path_21305" data-name="Path 21305" d="M120.3,47.117c-7.556,9.55-9.759,33.139,4.7,37.685a32.551,32.551,0,0,0,5.234-17.137,33.994,33.994,0,0,0-7.573-23,17.22,17.22,0,0,0-2.357,2.448" transform="translate(284.954 111.297)" fill="#f06292"/>
    <path id="Path_21306" data-name="Path 21306" d="M119.128,48.7c3.076.325,3.167,5.447,2.874,7.552-.283,2.053-1.693,7.088-4.616,6.777-2.807-.3-2.835-5.513-2.612-7.552.234-2.154,1.425-7.088,4.354-6.777" transform="translate(285.761 121.298)" fill="#ff78ac"/>
    <path id="Path_21307" data-name="Path 21307" d="M104.185,49.733c.932.569,2.521-4.885,6.365-8.485,1.5-1.4,2.58-2.465,1.33-3.54-1.163-1-2.406.569-3.75,2.186-2.626,3.156-4.633,9.42-3.946,9.839" transform="translate(259.248 93.171)" fill="#85ceff"/>
    <path id="Path_21308" data-name="Path 21308" d="M110.92,83.43c.957-.775-9.295-13.994,3-29.466.342-.433-1.774.869-4.127,3.115a18.588,18.588,0,0,0-2.933,22.832c1.711,2.769,3.638,3.876,4.057,3.52" transform="translate(259.622 134.25)" fill="#85ceff"/>
    <path id="Path_21309" data-name="Path 21309" d="M109.988,83.172c-.594-1.428-6.878-15.978,4.9-28.729-6.655.618-12.482,6.9-13.188,12.926-.8,6.854,2.989,13.5,8.286,15.8" transform="translate(253.135 135.65)" fill="#85ceff"/>
    <path id="Path_21310" data-name="Path 21310" d="M105.3,68.436c-.88,6.854,1.376,13.254,5.489,17.224-4.5-3.712-7.587-9.577-6.795-17.444.768-7.647,5.332-12.053,10.625-14.508-4.983,2.8-8.439,7.874-9.319,14.728" transform="translate(258.811 133.818)" fill="#213480"/>
    <path id="Path_21311" data-name="Path 21311" d="M104.241,71.449c-.367,7.444,2.36,14.127,6.76,18.031-4.766-3.593-7.8-10.4-7.427-18.066s3.488-14.137,8.586-17.248c-4.759,3.457-7.552,9.839-7.919,17.283" transform="translate(257.988 134.96)" fill="#213480"/>
    <path id="Path_21312" data-name="Path 21312" d="M106.141,69.989c1.072,5.454,4.124,9.825,7.825,11.9-3.9-1.784-7.182-6.2-8.286-11.809s.063-11.648,2.783-14.993a21.027,21.027,0,0,0-2.322,14.9" transform="translate(262.282 137.254)" fill="#213480"/>
    <path id="Path_21313" data-name="Path 21313" d="M104.185,60.892c.862-.524,2.329,4.518,5.887,7.846,1.386,1.3,2.385,2.283,1.229,3.275-1.075.922-2.224-.527-3.467-2.022-2.427-2.919-4.288-8.712-3.649-9.1" transform="translate(259.27 151.624)" fill="#85ceff"/>
    <path id="Path_21314" data-name="Path 21314" d="M115.268,59.715c-2.015,3.059-.677,6.2,1.959,8.464a39.279,39.279,0,0,0,9.665-12.2,9.126,9.126,0,0,0-2.846-.821c-3.921-.489-6.519,1.124-8.778,4.553" transform="translate(284.775 137.228)" fill="#fff8e1"/>
    <path id="Path_21315" data-name="Path 21315" d="M117.643,56.752c.178,1.236.681,5.614,1.006,6.477.632,1.683,2.311,2.318,4.228,2.514a32.02,32.02,0,0,0,.695-4.787,33.571,33.571,0,0,0-2.51-13.666,7.336,7.336,0,0,0-1.253.321c-3.712,1.316-2.6,6.079-2.165,9.141" transform="translate(291.869 117.827)" fill="#fff8e1"/>
    <path id="Path_21316" data-name="Path 21316" d="M117.465,54.186c2.3,2.091,5.761,1.131,8.4-.779a44.157,44.157,0,0,0-10.925-11.239c-2.158,3.67-1.082,8.736,2.528,12.018" transform="translate(283.618 105.065)" fill="#fff8e1"/>
    <path id="Path_21317" data-name="Path 21317" d="M123.865,55.191a9.643,9.643,0,0,1-2.423,6.638,11.776,11.776,0,0,1-5.534,3.785,3.525,3.525,0,0,1-1.358.077,9.721,9.721,0,0,0,2.046,2.381,39.411,39.411,0,0,0,9.665-12.2,9.115,9.115,0,0,0-2.4-.754l0,.07" transform="translate(285.41 137.339)" fill="#eadcb9"/>
    <path id="Path_21318" data-name="Path 21318" d="M117.492,48.5a15.333,15.333,0,0,1,3.376,7.762,34.368,34.368,0,0,1,.36,5.286,9.384,9.384,0,0,1-.74,3.921A7.643,7.643,0,0,0,122,65.74a32.363,32.363,0,0,0,.695-4.783,33.677,33.677,0,0,0-2.51-13.666,6.847,6.847,0,0,0-1.257.321,3.831,3.831,0,0,0-1.439.887" transform="translate(292.743 117.827)" fill="#eadcb9"/>
    <path id="Path_21319" data-name="Path 21319" d="M120.232,48.991c1.54,1.494,3.142,3.453,3.558,5.6A11.94,11.94,0,0,0,125.8,53.4,44.143,44.143,0,0,0,114.88,42.168a7.994,7.994,0,0,0-1.027,2.989,14.7,14.7,0,0,1,6.379,3.834" transform="translate(283.676 105.065)" fill="#eadcb9"/>
    <path id="Path_21320" data-name="Path 21320" d="M44.925,57.092c.122,1.473-1.446,2.709-2.172,3.83-.988,1.536-1.77,4.082.286,5.161,2.807,1.473,3.767-2.259,3.268-4.459-.209-.911-1.337-3.973-1.383-4.532" transform="translate(104.016 142.25)" fill="#e0f7fa"/>
    <path id="Path_21321" data-name="Path 21321" d="M44.052,57.88c-.569,1.117-3.121,3.649-1.795,4.906,1.54,1.449,1.983-1.871,2.053-2.671a11.048,11.048,0,0,0-.258-2.235" transform="translate(104.348 144.213)" fill="#fff"/>
    <path id="Path_21322" data-name="Path 21322" d="M45.468,56.907c.475,1.606-.992,5.5,1.466,5.925,2.636.464,1.075-2.975.265-3.886-.5-.555-1.732-2.039-1.732-2.039" transform="translate(113.263 141.789)" fill="#e0f7fa"/>
    <path id="Path_21323" data-name="Path 21323" d="M44.933,54.579a7.919,7.919,0,0,1-1.861.615c-.978.15-2.706-.01-3.355.925-.737,1.058.73,1.645,1.571,1.7a3.437,3.437,0,0,0,2.762-.971,8.255,8.255,0,0,0,.883-2.27" transform="translate(98.457 135.989)" fill="#e0f7fa"/>
    <path id="Path_21324" data-name="Path 21324" d="M45.672,57.352c.157.807-.622,2.455.415,2.881,1.093.447.587-1.208.3-1.686-.185-.307-.395-.59-.573-.9Z" transform="translate(113.461 142.898)" fill="#fff"/>
    <path id="Path_21325" data-name="Path 21325" d="M40.512,56.27c.9.056,2.35-.286,2.462-1.383a12.119,12.119,0,0,0-2.584.136c-.876.325-.869,1.187.122,1.246" transform="translate(99.04 136.755)" fill="#fff"/>
    <path id="Path_21326" data-name="Path 21326" d="M50.533,59.656c-.1,1.215-.506,4.295,1,4.724,1.641.471,2.943-2.374,4.651-2.165.684.084,1.253.782,1.962.737.534-.035,1.344-.943,1.861-.772.7.234.782,2.154.946,2.748.262.939.639,2.434,1.683,2.814,2.472.89,2.406-3.352,1.8-4.612-.237-.5-.779-1.047-.513-1.613s1.4-.908,1.892-1.219A3.574,3.574,0,0,0,67.471,56.1c-.216-1.121-.834-3.09-2.277-3.121-.751-.014-1.236.653-1.665,1.173A17.612,17.612,0,0,1,60.411,57.3c-2.514,1.83-9.878,2.353-9.878,2.353" transform="translate(125.59 132.012)" fill="#8dad0b"/>
    <path id="Path_21327" data-name="Path 21327" d="M51.82,53.7a8.275,8.275,0,0,0-5.311.161,3.8,3.8,0,0,0-1.837,1.952c-1,3.209,3.918,6.226,5.985,7.465a28.763,28.763,0,0,0,14.256,4.371,22.415,22.415,0,0,0,9.759-1.987A13.769,13.769,0,0,0,79.9,61.514a9.222,9.222,0,0,0,1.47-7.535c-.786-3.055-3.492-4.11-6.316-3.614-3.226.569-6.033,2.3-8.823,3.935-7.256,4.256-11.844-.01-14.41-.6" transform="translate(110.976 125.199)" fill="#a8e525"/>
    <path id="Path_21328" data-name="Path 21328" d="M50.466,59.983c-.1,1.2-.171,3.589,1.309,4.015,1.617.464,2.915-1.721,4.6-1.515a10.344,10.344,0,0,0,1.959.356c.527-.035,1.292-.506,1.8-.335.691.23.768,1.449.932,2.032.258.932.628,2.406,1.662,2.776,2.437.88,2.371-3.307,1.774-4.55-.234-.489-.772-1.03-.506-1.589s1.379-.9,1.868-1.2a3.523,3.523,0,0,0,1.638-4.138c-.213-1.107-.821-3.048-2.249-3.08-.737-.017-1.219.642-1.641,1.156a17.145,17.145,0,0,1-3.076,3.1,15.352,15.352,0,0,1-8.977,2.929,7.169,7.169,0,0,1-.779-.063Z" transform="translate(125.622 131.436)" fill="#e0f7fa"/>
    <path id="Path_21329" data-name="Path 21329" d="M50.534,59.063c-.189,1.163.066,2.647,1.473,2.709.946.042,1.442-.548,2.158-1.044a2.2,2.2,0,0,1,1.865-.384c.422.108.807.311,1.219.461a1.548,1.548,0,0,0,.807.164,1.775,1.775,0,0,0,.559-.29,2.238,2.238,0,0,1,1.826-.391,1.953,1.953,0,0,1,1.3,1.309c.171.5.161,1.061.321,1.575.189.6.677,1.816,1.526,1.344.894-.5.349-1.847.01-2.538-.478-.971-2.332-3.3-.5-3.956.747-.272,1.037.9,1.788.712a2.3,2.3,0,0,0,1.477-2.472A3.355,3.355,0,0,0,65.028,53.7a3.891,3.891,0,0,0-1.589-.6,17.177,17.177,0,0,1-3.052,3.073,15.348,15.348,0,0,1-8.977,2.926,6.5,6.5,0,0,1-.782-.059Z" transform="translate(125.774 132.284)" fill="#fff"/>
    <path id="Path_21330" data-name="Path 21330" d="M58.262,55.371C56.041,54.966,54,53.9,51.8,53.412a8.914,8.914,0,0,0-5.384.283,3.649,3.649,0,0,0-1.809,1.858c-.981,3.055,3.855,5.922,5.887,7.105a28.958,28.958,0,0,0,14.015,4.159A23.181,23.181,0,0,0,74.1,64.924a13.635,13.635,0,0,0,5.136-3.946,8.557,8.557,0,0,0,1.449-7.172c-.775-2.9-3.432-3.911-6.208-3.439-3.177.541-5.8,2.434-8.677,3.746a14.368,14.368,0,0,1-5.827,1.414,9.265,9.265,0,0,1-1.714-.157" transform="translate(110.826 125.218)" fill="#600909"/>
    <path id="Path_21331" data-name="Path 21331" d="M55.622,56.051c-.761-2.294-3.492-3.118-5.639-2.315A4.664,4.664,0,0,0,47.3,56.655a27.861,27.861,0,0,0,8.593,2.172,7.463,7.463,0,0,0-.272-2.776" transform="translate(117.858 133.141)" fill="#fff8e1"/>
    <path id="Path_21332" data-name="Path 21332" d="M58.274,53.623a5.568,5.568,0,0,0-5.96.765c-1.288,1.194-1.107,3.411-.5,5.024a20.606,20.606,0,0,0,5.175-1.554,14.548,14.548,0,0,0,3.139-1.917,3.605,3.605,0,0,0-1.854-2.318" transform="translate(127.94 132.283)" fill="#fff8e1"/>
    <path id="Path_21333" data-name="Path 21333" d="M55.81,56.941c1.99.175,4.536-.929,4.756-3.094a6.616,6.616,0,0,0-.489-3.017A6.235,6.235,0,0,0,56.2,50.37a15.81,15.81,0,0,0-4.385,1.55c.4,2.277,1.355,4.787,3.994,5.021" transform="translate(129.105 125.218)" fill="#fff8e1"/>
    <path id="Path_21334" data-name="Path 21334" d="M48.859,55.679c.957,1.337,2.58,1.39,4.071,1.253.887-.084,2.277-.014,3.01-.615a3.145,3.145,0,0,0,.705-2.772,14.354,14.354,0,0,0-.5-2.144,14.17,14.17,0,0,1-5.51,1.271,9.265,9.265,0,0,1-1.714-.157c-.189-.035-.377-.077-.562-.119a4.089,4.089,0,0,0,.5,3.282" transform="translate(120.17 128.073)" fill="#fff8e1"/>
    <path id="Path_21335" data-name="Path 21335" d="M46.612,54.108c1.61.9,2.982,1.316,4.361-.164a8.629,8.629,0,0,0,1.219-1.77,22.383,22.383,0,0,0-2.668-.817,10.672,10.672,0,0,0-3.726-.189,1.886,1.886,0,0,0,.814,2.94" transform="translate(113.104 127.273)" fill="#fff8e1"/>
    <path id="Path_21336" data-name="Path 21336" d="M58.952,54.77c-.293-.325-.6-.653-.88-1A6.553,6.553,0,0,1,57.6,55.22a4.575,4.575,0,0,1-1.882-1.491,7.081,7.081,0,0,1-.2,2.577A6.311,6.311,0,0,1,53.5,54.846a8.3,8.3,0,0,1-.063,1.641,6.345,6.345,0,0,1-2.067-1.215,6.812,6.812,0,0,0,.443,2.929,20.727,20.727,0,0,0,5.171-1.554,14.744,14.744,0,0,0,3.139-1.917,4.673,4.673,0,0,0-.527-1.152,3.066,3.066,0,0,1-.646,1.191" transform="translate(127.94 133.497)" fill="#eadcb9"/>
    <path id="Path_21337" data-name="Path 21337" d="M53.356,52.651a11.815,11.815,0,0,1,1.453,1.522,7.471,7.471,0,0,1,.265-1.885,26.041,26.041,0,0,1,2.053,2.629,8.624,8.624,0,0,1-.154-3.261,18.055,18.055,0,0,1,2.116,2.825,12.514,12.514,0,0,1,.052-2.552,2.8,2.8,0,0,1,1.449,1.341,7.165,7.165,0,0,0-.517-2.437,6.257,6.257,0,0,0-3.876-.464,15.748,15.748,0,0,0-4.382,1.55,9.534,9.534,0,0,0,.936,2.915,5.11,5.11,0,0,1,.6-2.182" transform="translate(129.105 125.218)" fill="#eadcb9"/>
    <path id="Path_21338" data-name="Path 21338" d="M48.559,55.169a4.024,4.024,0,0,1,.988-1.393A7.044,7.044,0,0,1,50,55.445a4.024,4.024,0,0,1,.992-1.76c.192.716.482,1.379.716,2.06a5.9,5.9,0,0,1,.639-2.423,7.369,7.369,0,0,1,1.578,2.123,2.747,2.747,0,0,1,.866-2.392,11.627,11.627,0,0,1,.915,1.33,3.851,3.851,0,0,1,.688-2.071c-.08-.3-.168-.608-.251-.911a14.061,14.061,0,0,1-5.51,1.271,9.329,9.329,0,0,1-1.718-.154c-.185-.035-.374-.077-.559-.119a4.415,4.415,0,0,0,.2,2.769" transform="translate(120.169 128.073)" fill="#eadcb9"/>
    <path id="Path_21339" data-name="Path 21339" d="M45.4,52.555a1.873,1.873,0,0,1,1.355-.873,3.14,3.14,0,0,0-.8,1.2,4.517,4.517,0,0,1,2.339-1.016,7.341,7.341,0,0,0-.653,1.208,4.532,4.532,0,0,1,1.557-.848,12.269,12.269,0,0,0-.5,1.788,2.523,2.523,0,0,1,1.851-1.425,4.119,4.119,0,0,1-.147,1.861,3.887,3.887,0,0,0,.566-.506,8.593,8.593,0,0,0,1.222-1.77,23.292,23.292,0,0,0-2.671-.814,10.574,10.574,0,0,0-3.722-.189,2.2,2.2,0,0,0-.4,1.386" transform="translate(113.105 127.272)" fill="#eadcb9"/>
    <path id="Path_21340" data-name="Path 21340" d="M55.9,56.939a7.251,7.251,0,0,1-1.334.461,3.688,3.688,0,0,1-.024-1.383,5.634,5.634,0,0,1-2.413.66,4.6,4.6,0,0,1,.2-1.645c-.545.426-1.124.814-1.648,1.191a2.088,2.088,0,0,1-.562-1.746,8.487,8.487,0,0,1-1.334,1.2,4.189,4.189,0,0,1,0-1.962A5.413,5.413,0,0,0,47.3,55.944a27.759,27.759,0,0,0,8.6,2.172,11.023,11.023,0,0,0,.007-1.177" transform="translate(117.855 133.848)" fill="#eadcb9"/>
    <path id="Path_21341" data-name="Path 21341" d="M44.629,56.693c.2,2.175.485,5.339,3.1,5.922a2.746,2.746,0,0,0,2.929-1.194c1.054-1.411,1.072-2.549,1.18-4.256a1.931,1.931,0,0,1,.946-1.847,24.748,24.748,0,0,0-2.43-1.4c-3.006-.967-5.726,2.772-5.726,2.772" transform="translate(111.197 133.951)" fill="#8cba1c"/>
    <path id="Path_21342" data-name="Path 21342" d="M58.219,59.522a2.147,2.147,0,0,0,.656-.433c.045-.045.094-.094.143-.15a2.784,2.784,0,0,0,.115-.642,4.732,4.732,0,0,0-.768-2.832,6.459,6.459,0,0,0-2.238-2.025A12.735,12.735,0,0,0,53.6,52.381a9.7,9.7,0,0,0-5.436-.175,7.333,7.333,0,0,0-4.483,3.446,10.709,10.709,0,0,0-1.3,2.874,8.246,8.246,0,0,0-.021,4.591,6.859,6.859,0,0,0,1.833,2.692,7.056,7.056,0,0,0,6.435,1.124,3.885,3.885,0,0,0,2.692-2.709c.67-1.777,1.491-5.873,4.186-4.955.182.063.36.143.538.223Z" transform="translate(104.744 129.314)" fill="#ef9a9a"/>
    <path id="Path_21343" data-name="Path 21343" d="M51.847,51.93c.569.059-.615.925-1.529,1.568-.677.471-.587,1.281.957.6a5.72,5.72,0,0,1,3.317-.395,3.135,3.135,0,0,1,1.645.81c.81.821,1.271,2.1.318,3a8.421,8.421,0,0,1-.894.632,7.426,7.426,0,0,0-2.242,3.4c-.7,1.711-.737,3.82-3.3,4.749-1.885.681-6.7,1.222-8.066-4.431a5.63,5.63,0,0,0,.272,1.177,6.871,6.871,0,0,0,1.833,2.7,7.054,7.054,0,0,0,6.435,1.121,3.88,3.88,0,0,0,2.692-2.706c.67-1.777,1.491-5.876,4.186-4.958.335.115.7.478,1.03.318,2.476-1.187-.318-7.256-6.655-7.584" transform="translate(104.779 129.388)" fill="#c66a6a"/>
    <path id="Path_21344" data-name="Path 21344" d="M54.262,54.8c.894-.562.189-1.707-.981-1.871-2.332-.325-4.1,1.784-5.157,3.429-.346.538-.831,1.327-1.554,1.358-1.952.084-.489-3.052-1.246-3.729a1.294,1.294,0,0,0-1.39.059A3.907,3.907,0,0,0,42.279,57.1c-.36,2.915,1.288,6.676,4.689,6.554a4.489,4.489,0,0,0,3.39-1.39c.922-1.124,1.006-2.668,1.519-3.984.576-1.48,1.047-2.643,2.385-3.485" transform="translate(105.22 131.781)" fill="#f9acac"/>
    <path id="Path_21345" data-name="Path 21345" d="M46.234,58.1c3.118-1.027.045-3.932-2.168-3.355-3.261.845-.014,4.075,2.168,3.355" transform="translate(106.349 136.207)" fill="#fcbebe"/>
    <path id="Path_21346" data-name="Path 21346" d="M67.822,43.783c-.485.5-3.628-2.374-7.894-2.266-4.267-.108-7.409,2.769-7.9,2.266-.22-.22.244-1.432,1.624-2.643a9.52,9.52,0,0,1,12.549,0c1.379,1.212,1.844,2.423,1.62,2.643" transform="translate(129.506 96.621)" fill="#a8e525"/>
    <path id="Path_21347" data-name="Path 21347" d="M64.815,42.926c-.653.628-4.871-2.975-10.6-2.842-5.726-.133-9.948,3.471-10.6,2.842-.3-.276.328-1.8,2.179-3.314a13.475,13.475,0,0,1,16.847,0c1.851,1.515,2.472,3.038,2.175,3.314" transform="translate(108.494 91.326)" fill="#a8e525"/>
    <path id="Path_21348" data-name="Path 21348" d="M72.162,50.2A10.407,10.407,0,1,1,61.754,39.791,10.408,10.408,0,0,1,72.162,50.2" transform="translate(127.941 99.143)" fill="#8dad0b"/>
    <path id="Path_21349" data-name="Path 21349" d="M60.63,38.934a10.8,10.8,0,0,1,8.935,4.515,10.586,10.586,0,0,0-17.87,0,10.8,10.8,0,0,1,8.935-4.515" transform="translate(128.803 96.023)" fill="#8cba1c"/>
    <path id="Path_21350" data-name="Path 21350" d="M55.432,36.813c5.192,0,9.745,2.1,12.311,5.265-2.336-3.4-6.973-5.723-12.311-5.723s-9.975,2.318-12.308,5.723c2.563-3.163,7.119-5.265,12.308-5.265" transform="translate(107.448 90.584)" fill="#8cba1c"/>
    <path id="Path_21351" data-name="Path 21351" d="M73.355,53.473A15.628,15.628,0,1,1,57.726,37.845,15.629,15.629,0,0,1,73.355,53.473" transform="translate(104.891 94.294)" fill="#8dad0b"/>
    <path id="Path_21352" data-name="Path 21352" d="M71.587,52.59A14.6,14.6,0,1,1,56.989,38a14.6,14.6,0,0,1,14.6,14.595" transform="translate(105.629 94.668)" fill="#edf8f9"/>
    <path id="Path_21353" data-name="Path 21353" d="M70.592,49.426a9.49,9.49,0,1,1-9.49-9.49,9.491,9.491,0,0,1,9.49,9.49" transform="translate(128.596 99.504)" fill="#edf8f9"/>
    <path id="Path_21354" data-name="Path 21354" d="M51.7,44.192a2.105,2.105,0,1,1-2.105-2.105A2.106,2.106,0,0,1,51.7,44.192" transform="translate(118.313 104.863)"/>
    <path id="Path_21355" data-name="Path 21355" d="M51.533,43.433a1.763,1.763,0,1,1-1.763-1.763,1.763,1.763,0,0,1,1.763,1.763" transform="translate(119.612 103.824)" fill="#fff"/>
    <path id="Path_21356" data-name="Path 21356" d="M60.716,45.849a4.183,4.183,0,1,1-4.183-4.183,4.181,4.181,0,0,1,4.183,4.183" transform="translate(130.435 103.815)"/>
    <path id="Path_21357" data-name="Path 21357" d="M60.036,45.565a3.787,3.787,0,1,1-3.785-3.785,3.783,3.783,0,0,1,3.785,3.785" transform="translate(130.717 104.099)" fill="#d7df23"/>
    <path id="Path_21358" data-name="Path 21358" d="M59.5,45.343l-2.119.276L59.232,46.7l-2.053-.583L58.485,47.8,56.8,46.492l.58,2.053L56.306,46.7l-.276,2.116L55.751,46.7l-1.075,1.844.58-2.053L53.572,47.8l1.306-1.686-2.053.583,1.844-1.079-2.116-.276,2.116-.276-1.844-1.079,2.053.583-1.306-1.686,1.683,1.309-.58-2.053,1.075,1.844.279-2.116.276,2.116,1.075-1.844-.58,2.053,1.683-1.309-1.306,1.686,2.053-.583-1.847,1.079Z" transform="translate(130.939 104.321)" fill="#8dc63f"/>
    <path id="Path_21359" data-name="Path 21359" d="M55.968,43.873a1.412,1.412,0,1,1-1.411-1.414,1.414,1.414,0,0,1,1.411,1.414" transform="translate(132.411 105.79)"/>
    <path id="Path_21360" data-name="Path 21360" d="M53.026,42.694c.1.726.538,1.386,2.13,1.487a6.222,6.222,0,0,1,5.611,5.709c.237,3.61,5.922,2.053,5.468-2.521-.429-4.337-5.6-8.5-11.086-6.857-.939.283-2.29,1-2.123,2.182" transform="translate(132.084 100.024)" fill="#fff"/>
    <path id="Path_21361" data-name="Path 21361" d="M63.867,42.281C63.7,43.443,63,44.5,60.456,44.662A9.968,9.968,0,0,0,51.469,53.8c-.377,5.782-9.476,3.289-8.753-4.036.691-6.945,8.963-13.617,17.758-10.978,1.494.447,3.663,1.6,3.394,3.492" transform="translate(106.327 95.176)" fill="#fff"/>
    <path id="Path_21362" data-name="Path 21362" d="M57.748,45.62c0,.663-.915,1.2-2.039,1.2s-2.039-.538-2.039-1.2.915-1.2,2.039-1.2,2.039.538,2.039,1.2" transform="translate(133.724 110.674)" fill="#fff"/>
    <path id="Path_21363" data-name="Path 21363" d="M53.63,47.071c0,1.362-1.872,2.465-4.183,2.465s-4.183-1.1-4.183-2.465,1.872-2.462,4.183-2.462,4.183,1.1,4.183,2.462" transform="translate(112.78 111.147)" fill="#fff"/>
    <path id="Path_21364" data-name="Path 21364" d="M57.48,43.69a1.929,1.929,0,1,1-1.927-1.931A1.927,1.927,0,0,1,57.48,43.69" transform="translate(133.604 104.046)" fill="#fff"/>
    <path id="Path_21365" data-name="Path 21365" d="M44.456,40.285A1.363,1.363,0,1,0,46.785,41.7c3.128-5.628,6.47-7.661,9.511-8.708a15.675,15.675,0,0,0-11.84,7.3" transform="translate(110.113 82.192)" fill="#8cba1c"/>
    <path id="Path_21366" data-name="Path 21366" d="M44.387,39.508a1.363,1.363,0,1,0,2.329,1.411c3.128-5.628,6.711-6.878,9.752-7.926a14.008,14.008,0,0,0-12.081,6.515" transform="translate(109.941 82.188)"/>
    <path id="Path_21367" data-name="Path 21367" d="M63.273,42.105a1.274,1.274,0,1,1-2.374.915c-1.955-5.684-4.731-8.376-7.357-9.836a15.532,15.532,0,0,1,9.731,8.921" transform="translate(133.405 82.681)" fill="#8cba1c"/>
    <path id="Path_21368" data-name="Path 21368" d="M63.495,41.095a1.274,1.274,0,1,1-2.374.915,14.241,14.241,0,0,0-7.668-8.876,13.082,13.082,0,0,1,10.042,7.961" transform="translate(133.183 82.556)"/>
    <path id="Path_21369" data-name="Path 21369" d="M152.078,61.736a.231.231,0,0,1,.255.2.229.229,0,1,1-.255-.2m.953,3.013a.264.264,0,1,0,.23-.293.266.266,0,0,0-.23.293m.573-1.617a.26.26,0,1,0,.23-.29.265.265,0,0,0-.23.29m1.145-.478a.25.25,0,1,0,.5-.059.246.246,0,0,0-.276-.216.253.253,0,0,0-.22.276m.929,1.725a.125.125,0,0,0,.136.108.128.128,0,0,0,.108-.14.12.12,0,0,0-.136-.1.123.123,0,0,0-.108.136m.506-3.6a.285.285,0,0,0,.314.248.285.285,0,1,0-.314-.248m.6,1.082a.2.2,0,0,0,.223.178.2.2,0,0,0-.045-.4.2.2,0,0,0-.178.223m.7-.147a.2.2,0,0,0,.227.178.206.206,0,1,0-.227-.178m1.369,3.181a.213.213,0,1,0,.185-.237.213.213,0,0,0-.185.237m.866-.429a.1.1,0,0,0,.112.087.1.1,0,0,0,.091-.112.1.1,0,0,0-.115-.091.1.1,0,0,0-.087.115m1.089-.234a.243.243,0,1,0,.213-.272.246.246,0,0,0-.213.272m1.033-.08a.259.259,0,1,0,.227-.286.258.258,0,0,0-.227.286m1.362-3.362a.186.186,0,0,0,.21.164.189.189,0,0,0,.168-.209.194.194,0,0,0-.213-.168.189.189,0,0,0-.164.213m.9.66a.255.255,0,0,0,.286.227.259.259,0,1,0-.286-.227m.859-.119a.113.113,0,1,0,.223-.028.118.118,0,0,0-.126-.1.111.111,0,0,0-.1.126m1.117-.663a.138.138,0,0,0,.154.122.144.144,0,0,0,.122-.157.14.14,0,0,0-.154-.119.138.138,0,0,0-.122.154m.768.426a.159.159,0,0,0,.175.14.155.155,0,0,0,.14-.175.158.158,0,0,0-.314.035m.95.1a.158.158,0,1,0,.14-.175.155.155,0,0,0-.14.175m.6-.873a.2.2,0,0,0,.223.175.2.2,0,0,0,.174-.223.2.2,0,0,0-.4.049m.45,2.863a.1.1,0,0,0,.115.091.1.1,0,1,0-.025-.206.1.1,0,0,0-.091.115m.845-.723a.1.1,0,1,0,.2-.024.1.1,0,0,0-.112-.087.1.1,0,0,0-.091.112m.786-.978a.143.143,0,0,0,.161.129.151.151,0,0,0,.133-.164.148.148,0,0,0-.164-.129.146.146,0,0,0-.129.164m.73,3.425a.153.153,0,1,0,.133-.168.148.148,0,0,0-.133.168m1.4-1.313a.18.18,0,0,0,.2.157.184.184,0,0,0,.161-.2.186.186,0,0,0-.2-.157.182.182,0,0,0-.157.2m1.341-2.94a.213.213,0,1,0,.422-.049.211.211,0,0,0-.234-.185.214.214,0,0,0-.189.234m1.3,3.446a.142.142,0,1,0,.126-.157.146.146,0,0,0-.126.157m1.037-.562a.246.246,0,1,0,.489-.059.246.246,0,0,0-.489.059m.388,1.194a.287.287,0,1,0,.251-.321.287.287,0,0,0-.251.321m-3.048-8.324a.155.155,0,0,0,.216.045.157.157,0,0,0,.049-.216.161.161,0,0,0-.22-.045.16.16,0,0,0-.045.216m1.777,2.675a.143.143,0,0,0,.2.042.146.146,0,0,0,.045-.2.15.15,0,0,0-.206-.042.143.143,0,0,0-.042.2m.136-1.512a.263.263,0,0,0,.367.08.272.272,0,0,0,.08-.37.27.27,0,0,0-.37-.077.265.265,0,0,0-.077.367m.733.388a.168.168,0,1,0,.049-.234.168.168,0,0,0-.049.234m.726-.967a.252.252,0,1,0,.073-.349.25.25,0,0,0-.073.349m.859-.136a.267.267,0,0,0,.37.08.269.269,0,1,0-.37-.08m1.309.894a.2.2,0,1,0,.328-.213.2.2,0,0,0-.272-.059.2.2,0,0,0-.056.272m.1-1.774a.131.131,0,0,0,.185.038.132.132,0,1,0-.185-.038m.349-2.235a.093.093,0,0,0,.133.028.1.1,0,0,0-.1-.161.093.093,0,0,0-.028.133m2.318,2.769a.111.111,0,0,0,.15.031.1.1,0,0,0,.031-.15.108.108,0,0,0-.182.119M147.651,63.52a.137.137,0,0,0,.15.122.142.142,0,0,0,.122-.154.14.14,0,0,0-.154-.122.137.137,0,0,0-.119.154m5.66-8.526a.118.118,0,0,0,.136.108.12.12,0,0,0,.108-.136.125.125,0,0,0-.136-.108.12.12,0,0,0-.108.136m-.08,1.522a.156.156,0,1,0,.136-.175.157.157,0,0,0-.136.175m.9,2.357a.2.2,0,0,0,.4-.049.2.2,0,0,0-.223-.178.207.207,0,0,0-.178.227M150.758,55.4a.218.218,0,1,0,.189-.241.216.216,0,0,0-.189.241m1.226,4.225a.192.192,0,0,0,.213.168.19.19,0,0,0,.168-.213.194.194,0,0,0-.213-.168.192.192,0,0,0-.168.213m-1.805-1.082a.233.233,0,0,0,.262.206.236.236,0,1,0-.262-.206m-.9-.255a.2.2,0,0,0,.216.171.193.193,0,0,0,.168-.216.193.193,0,0,0-.384.045m-1.47-.23a.134.134,0,1,0,.265-.031.134.134,0,0,0-.265.031m-.9-.3a.209.209,0,1,0,.182-.23.207.207,0,0,0-.182.23m-1.212.562a.264.264,0,0,0,.293.227.26.26,0,0,0,.227-.29.262.262,0,1,0-.52.063m.775,1.987a.155.155,0,1,0,.307-.038.153.153,0,0,0-.171-.133.152.152,0,0,0-.136.171m-.087,1.721a.183.183,0,0,0,.206.164.186.186,0,1,0-.045-.37.184.184,0,0,0-.161.206m-1.543-2.538a.258.258,0,0,0,.286.223.255.255,0,0,0,.227-.286.259.259,0,0,0-.513.063m-.981.66a.134.134,0,0,0,.265-.031.134.134,0,0,0-.265.031m-1.093-.2a.185.185,0,0,0,.206.164.19.19,0,0,0,.164-.206.186.186,0,0,0-.209-.164.183.183,0,0,0-.161.206m-.164,2.133a.161.161,0,0,0,.178.14.159.159,0,0,0,.14-.178.16.16,0,0,0-.318.038m.457,2.392a.251.251,0,0,0,.5-.059.255.255,0,0,0-.283-.22.251.251,0,0,0-.217.279m-.426.014a.279.279,0,1,0,.244-.307.277.277,0,0,0-.244.307m-.433.349a.13.13,0,0,0,.147.115.128.128,0,0,0,.112-.147.127.127,0,0,0-.143-.112.13.13,0,0,0-.115.143m-1.48-2.846a.181.181,0,0,0,.2.161.179.179,0,0,0,.161-.2.182.182,0,0,0-.2-.161.184.184,0,0,0-.161.2m-.758,1.285a.286.286,0,1,0,.251-.318.289.289,0,0,0-.251.318M138.911,61a.267.267,0,1,0,.234-.3.267.267,0,0,0-.234.3m.161,3.708a.227.227,0,1,0,.2-.251.229.229,0,0,0-.2.251m-.618.573a.1.1,0,0,0,.115.091.1.1,0,0,0,.091-.115.105.105,0,0,0-.115-.091.1.1,0,0,0-.091.115m-1-.751a.216.216,0,0,0,.429-.049.216.216,0,1,0-.429.049m-1.072-.5a.17.17,0,0,0,.189.15.174.174,0,0,0,.147-.189.165.165,0,0,0-.189-.147.168.168,0,0,0-.147.185M146.949,54a.117.117,0,0,0,.129.1.115.115,0,0,0,.1-.129.121.121,0,0,0-.133-.1.117.117,0,0,0-.1.129m-.81,1.554a.1.1,0,0,0,.112.087.1.1,0,0,0,.091-.112.1.1,0,0,0-.2.024m-1-1.309a.162.162,0,1,0,.143-.178.159.159,0,0,0-.143.178m-1.515,1.041a.293.293,0,0,0,.321.255.288.288,0,0,0,.251-.325.284.284,0,0,0-.318-.251.288.288,0,0,0-.255.321m-.915-.269a.12.12,0,1,0,.1-.133.116.116,0,0,0-.1.133m-.171-1.278a.12.12,0,0,0,.136.108.125.125,0,0,0,.108-.136.123.123,0,0,0-.244.028m-.859-.112a.1.1,0,0,0,.112.091.1.1,0,0,0,.091-.115.105.105,0,0,0-.115-.091.1.1,0,0,0-.087.115M157,56.47a.162.162,0,1,0,.143.182A.161.161,0,0,0,157,56.47m1.145,2.179a.142.142,0,0,0-.157.122.144.144,0,0,0,.122.157.141.141,0,0,0,.035-.279m1.316-1.91a.223.223,0,0,0-.056.443.223.223,0,0,0,.056-.443m1.948,1.247a.4.4,0,1,0,.353.447.406.406,0,0,0-.353-.447m1.477-.112a.168.168,0,0,0-.185.147.163.163,0,0,0,.143.185.167.167,0,1,0,.042-.332m.23-1.777a.17.17,0,0,0-.189.15.173.173,0,0,0,.15.192.169.169,0,0,0,.189-.15.173.173,0,0,0-.15-.192m1.219-.122a.141.141,0,0,0-.157.122.143.143,0,0,0,.126.161.146.146,0,0,0,.157-.126.138.138,0,0,0-.126-.157m-29.186,4.309a.2.2,0,1,0,.175-.223.2.2,0,0,0-.175.223m.807-1.442a.282.282,0,0,0,.314.244.28.28,0,1,0-.066-.555.282.282,0,0,0-.248.311m.538,1.288a.253.253,0,0,0,.279.22.247.247,0,0,0,.22-.279.251.251,0,1,0-.5.059m.918.335a.165.165,0,0,0,.182.143.163.163,0,1,0-.182-.143m.709-.894a.237.237,0,1,0,.206-.262.236.236,0,0,0-.206.262m.723-3.167a.206.206,0,1,0,.178-.227.2.2,0,0,0-.178.227m1.571,3.024a.209.209,0,0,0,.227.182.2.2,0,0,0,.178-.227.207.207,0,0,0-.227-.182.2.2,0,0,0-.178.227m-4.312-6.739a.128.128,0,0,0,.14.112.132.132,0,0,0,.112-.143.121.121,0,0,0-.14-.108.126.126,0,0,0-.112.14m1.515-1.6a.233.233,0,0,0,.262.206.236.236,0,1,0-.262-.206m-.3,2.119a.25.25,0,1,0,.5-.059.246.246,0,0,0-.276-.216.251.251,0,0,0-.22.276m.915-.115a.306.306,0,1,0,.269-.339.308.308,0,0,0-.269.339m1.309-.422a.148.148,0,0,0,.293-.035.148.148,0,0,0-.293.035m-.492,2.881a.179.179,0,0,0,.356-.042.179.179,0,1,0-.356.042M175.59,53.1a.129.129,0,1,0-.178-.017.131.131,0,0,0,.178.017m-2.161-.419a.236.236,0,1,0-.332-.031.234.234,0,0,0,.332.031m1.945-.894a.249.249,0,1,0-.353-.035.247.247,0,0,0,.353.035m-.59-.709a.3.3,0,0,0,.042-.429.308.308,0,0,0-.43-.042.305.305,0,0,0-.042.429.3.3,0,0,0,.429.042m-1.061-.873a.149.149,0,0,0,.021-.209.149.149,0,1,0-.23.189.149.149,0,0,0,.209.021m2.692-1.138a.179.179,0,1,0-.251-.024.178.178,0,0,0,.251.024m-10.587,5.814a.13.13,0,0,0,.15.119.137.137,0,0,0,.119-.15.134.134,0,0,0-.15-.115.129.129,0,0,0-.119.147m2.053,2.723a.3.3,0,1,0,.262-.332.3.3,0,0,0-.262.332m.81-2.13a.1.1,0,1,0,.091-.112.1.1,0,0,0-.091.112M169,53.524a.2.2,0,0,0,.216.171.194.194,0,1,0-.216-.171m1.519,4.145a.1.1,0,1,0,.2-.024.1.1,0,0,0-.112-.087.1.1,0,0,0-.087.112m-29.591-9.536a.286.286,0,1,0,.251-.318.287.287,0,0,0-.251.318m-1.068,2.957a.135.135,0,0,0,.147.115.138.138,0,0,0,.115-.147.132.132,0,1,0-.262.031m40.517,8.991a.219.219,0,0,0-.241.192.218.218,0,0,0,.433.052.224.224,0,0,0-.192-.244m-.506-1.047a.114.114,0,0,0-.126.1.113.113,0,0,0,.1.126.114.114,0,0,0,.028-.227m-.8.059a.241.241,0,0,0-.056.478.241.241,0,0,0,.056-.478m-.573,2.064a.193.193,0,1,0,.171.216.2.2,0,0,0-.171-.216m-.457.552a.278.278,0,1,0,.244.311.281.281,0,0,0-.244-.311m-.971-1.522a.226.226,0,0,0-.251.2.224.224,0,0,0,.2.248.221.221,0,0,0,.248-.2.224.224,0,0,0-.2-.248m-.4,1.442a.207.207,0,0,0-.23.182.209.209,0,0,0,.415.049.206.206,0,0,0-.185-.23m-.653-1.267a.163.163,0,1,0,.143.182.162.162,0,0,0-.143-.182" transform="translate(336.746 119.129)" fill="#9e1212"/>
    <path id="Path_21370" data-name="Path 21370" d="M155.413,55.345a9.991,9.991,0,1,1-9.993-9.993,9.994,9.994,0,0,1,9.993,9.993" transform="translate(337.44 112.999)" fill="#9e1212"/>
    <path id="Path_21371" data-name="Path 21371" d="M154.284,53.891c0,4.511-4.176,8.17-9.333,8.17s-9.33-3.659-9.33-8.17,4.176-8.17,9.33-8.17,9.333,3.659,9.333,8.17" transform="translate(337.913 113.918)" fill="#edf8f9"/>
    <path id="Path_21372" data-name="Path 21372" d="M142.155,49.47a1.887,1.887,0,1,1-1.886-1.885,1.887,1.887,0,0,1,1.886,1.885" transform="translate(344.79 118.562)"/>
    <path id="Path_21373" data-name="Path 21373" d="M142.008,48.792a1.58,1.58,0,1,1-1.582-1.582,1.58,1.58,0,0,1,1.582,1.582" transform="translate(345.953 117.628)" fill="#fff"/>
    <path id="Path_21374" data-name="Path 21374" d="M149.346,48.121c-.1.653-.548,1.243-2.179,1.334-2.985.168-5.548,2.458-5.747,5.115-.241,3.237-6.058,1.84-5.594-2.259.436-3.886,5.726-7.622,11.351-6.145.957.251,2.343.9,2.168,1.955" transform="translate(338.36 114.203)" fill="#fff"/>
    <path id="Path_21375" data-name="Path 21375" d="M142.8,50.8c0,.761-1.2,1.379-2.675,1.379s-2.674-.618-2.674-1.379,1.2-1.379,2.674-1.379,2.675.618,2.675,1.379" transform="translate(342.483 123.142)" fill="#fff"/>
    <path id="Path_21376" data-name="Path 21376" d="M136.193,47.828c.667,1.47,14.563,8.2,17.189,5.758.695-.642,1.4-1.25,1.341-3.918-.066-3.352-2.451-4.4-8.722-4.382-8.338.031-10.049,2.011-9.808,2.542" transform="translate(339.286 112.834)" fill="#9e1212"/>
    <path id="Path_21377" data-name="Path 21377" d="M154.662,55.589c3.6.192,2.888-2.922.538-4.452-2.888-1.875-16.337-7.249-19.986-4.8,0,0,16.019,9.075,19.448,9.256" transform="translate(336.899 113.882)"/>
    <path id="Path_21378" data-name="Path 21378" d="M142.591,55.468a9.991,9.991,0,1,0,9.993-9.993,9.991,9.991,0,0,0-9.993,9.993" transform="translate(355.279 113.305)" fill="#9e1212"/>
    <path id="Path_21379" data-name="Path 21379" d="M142.78,54.013c0,4.511,4.179,8.17,9.333,8.17s9.333-3.659,9.333-8.17-4.179-8.17-9.333-8.17-9.333,3.659-9.333,8.17" transform="translate(355.75 114.222)" fill="#edf8f9"/>
    <path id="Path_21380" data-name="Path 21380" d="M147.857,49.6a1.887,1.887,0,1,1-1.889-1.889,1.887,1.887,0,0,1,1.889,1.889" transform="translate(358.997 118.866)"/>
    <path id="Path_21381" data-name="Path 21381" d="M147.713,48.915a1.582,1.582,0,1,1-1.582-1.582,1.58,1.58,0,0,1,1.582,1.582" transform="translate(360.16 117.934)" fill="#fff"/>
    <path id="Path_21382" data-name="Path 21382" d="M144.075,48.243c.108.649.552,1.243,2.179,1.334,2.985.168,5.548,2.458,5.747,5.115.241,3.237,6.058,1.84,5.6-2.259-.44-3.89-5.73-7.622-11.355-6.145-.953.251-2.339.9-2.168,1.955" transform="translate(358.942 114.507)" fill="#fff"/>
    <path id="Path_21383" data-name="Path 21383" d="M144.758,50.924c0,.761,1.2,1.379,2.675,1.379s2.675-.618,2.675-1.379-1.2-1.379-2.675-1.379-2.675.618-2.675,1.379" transform="translate(360.679 123.446)" fill="#fff"/>
    <path id="Path_21384" data-name="Path 21384" d="M160.327,47.951c-.667,1.47-14.563,8.2-17.189,5.761-.695-.646-.73-1.648-.674-4.316.066-3.352,1.784-4.008,8.055-3.987,8.338.031,10.049,2.011,9.808,2.542" transform="translate(354.918 113.14)" fill="#9e1212"/>
    <path id="Path_21385" data-name="Path 21385" d="M144.7,55.474c-3.6.133-2.839-2.971-.461-4.462,2.919-1.826,16.452-6.973,20.063-4.473,0,0-16.17,8.809-19.6,8.935" transform="translate(354.361 114.281)"/>
    <path id="Path_21386" data-name="Path 21386" d="M166.917,56.431c0,1.714-2.451,3.314-8.425.471-2.514-1.194-9.982-6.746-20.744.14,10.3-9.141,29.169-2.088,29.169-.611" transform="translate(343.213 130.663)" fill="#c62222"/>
    <path id="Path_21387" data-name="Path 21387" d="M137.445,58.6c7.269-5.705,18.31-8.788,26.938-4.686,1.33.635,3.362,2.043,3.289,3.516-.063,1.26-2.06,1.693-3.219,1.714-1.634.035-3.17-1.1-4.487-1.945a21.043,21.043,0,0,0-5.642-2.392c-5.9-1.816-11.931,0-16.809,4l-.07-.209" transform="translate(342.458 129.656)" fill="#6d0a0a"/>
    <path id="Path_21388" data-name="Path 21388" d="M145.741,52.477l-.813.971c-.321.353-2.081,2.175,1.246,3.712s4.319-.8,4.256-1.47a9.7,9.7,0,0,0-4.689-3.212" transform="translate(359.228 130.751)" fill="#fff8e1"/>
    <path id="Path_21389" data-name="Path 21389" d="M150.619,55.384c-1.163-1.561-3.048-2.263-4.878-2.909l-.817.971a2.242,2.242,0,0,0-.719,1.847,4.05,4.05,0,0,1,1.76-.81,11.464,11.464,0,0,1-.038,1.7,5.193,5.193,0,0,1,1.515-.915c0,.615.052,1.24.094,1.868a2.686,2.686,0,0,1,1.281-1.082,5.042,5.042,0,0,0,.244,1.466,2.709,2.709,0,0,0,1.557-2.137" transform="translate(359.227 130.749)" fill="#eadcb9"/>
    <path id="Path_21390" data-name="Path 21390" d="M141.881,52.494h0c-.164,1.327,5.992,3.614,6.966,2.563a3.414,3.414,0,0,0,.807-2.14c-.084,0-7.776-1.564-7.772-.422" transform="translate(353.503 129.753)" fill="#eadcb9"/>
    <path id="Path_21391" data-name="Path 21391" d="M142.613,53.025c1.76.726,3.865,1.163,4.4.583a2.815,2.815,0,0,0,.377-.531,7.508,7.508,0,0,0-4.78-.052" transform="translate(355.334 131.201)" fill="#fff8e1"/>
    <path id="Path_21392" data-name="Path 21392" d="M142.894,54.416l.045-.768c-.147-.409-.862-2.6-3.52-.583-2.2,1.672-1.585,3.188-.985,3.8a28.491,28.491,0,0,1,4.459-2.448" transform="translate(343.524 130.118)" fill="#fff8e1"/>
    <path id="Path_21393" data-name="Path 21393" d="M143.281,54.475l-.342-.866a2.027,2.027,0,0,0-1.177-1.369,3.726,3.726,0,0,1-.1,1.76,10.586,10.586,0,0,1-1.351-.758c.213,1.065-.932,1.121-1.456.887.209.471-.51,1.152-.96,1.065a2.056,2.056,0,0,0,.5,1.679,22.825,22.825,0,0,1,4.892-2.4" transform="translate(343.525 130.161)" fill="#eadcb9"/>
    <path id="Path_21394" data-name="Path 21394" d="M141.02,52.729c2.242-.154,6.2-.957,11.728.761,4.756,1.48,5.733,3.01,5.985,3.6,0-.461-.353-2.074-4.323-3.673a22.331,22.331,0,0,0-13.39-.684" transform="translate(351.365 129.612)" fill="#aa1b1b"/>
    <path id="Path_21395" data-name="Path 21395" d="M96.8,70.941A17.971,17.971,0,1,0,78.832,52.97,17.972,17.972,0,0,0,96.8,70.941" transform="translate(196.418 87.203)" fill="#e25b00"/>
    <path id="Path_21396" data-name="Path 21396" d="M95.96,68.23a16.39,16.39,0,1,0-16.39-16.39A16.391,16.391,0,0,0,95.96,68.23" transform="translate(198.256 88.329)" fill="#edf8f9"/>
    <path id="Path_21397" data-name="Path 21397" d="M89.78,51.172a7.222,7.222,0,1,0-7.221-7.221,7.218,7.218,0,0,0,7.221,7.221" transform="translate(205.704 91.509)"/>
    <path id="Path_21398" data-name="Path 21398" d="M89.291,50a6.538,6.538,0,1,0-6.536-6.536A6.535,6.535,0,0,0,89.291,50" transform="translate(206.192 91.997)" fill="#29b6f6"/>
    <path id="Path_21399" data-name="Path 21399" d="M88.91,49.081l.478-3.656,1.858,3.184-1-3.547,2.908,2.259L90.9,44.412l3.544,1-3.184-1.858,3.656-.478L91.252,42.6l3.188-1.858-3.544,1,2.256-2.912-2.908,2.259,1-3.544-1.858,3.184-.478-3.656-.478,3.656L86.57,37.548l1.006,3.544-2.912-2.259,2.259,2.912-3.544-1L86.563,42.6l-3.656.478,3.656.478-3.184,1.858,3.544-1-2.256,2.909,2.909-2.259-1,3.547,1.858-3.184Z" transform="translate(206.572 92.379)" fill="#0277bd"/>
    <path id="Path_21400" data-name="Path 21400" d="M86.371,42.975a2.439,2.439,0,1,0-2.444-2.441,2.44,2.44,0,0,0,2.444,2.441" transform="translate(209.112 94.922)"/>
    <path id="Path_21401" data-name="Path 21401" d="M84.332,37.895c1.253.182,2.4.929,2.57,3.677a10.748,10.748,0,0,0,9.853,9.693c6.239.405,3.547,10.22-4.351,9.438-7.493-.744-14.682-9.665-11.837-19.148.482-1.613,1.728-3.952,3.764-3.659" transform="translate(199.158 94.356)" fill="#fff"/>
    <path id="Path_21402" data-name="Path 21402" d="M86.169,43.389a3.331,3.331,0,1,0-3.331-3.331,3.33,3.33,0,0,0,3.331,3.331" transform="translate(206.399 91.509)" fill="#fff"/>
    <path id="Path_21403" data-name="Path 21403" d="M86.858,38.887a1.884,1.884,0,1,1-1.885,1.885,1.887,1.887,0,0,1,1.885-1.885" transform="translate(211.718 96.89)" fill="#fff"/>
  </g>
</svg>
