<svg xmlns="http://www.w3.org/2000/svg" xmlns:xlink="http://www.w3.org/1999/xlink" x="0px" y="0px"
	 viewBox="0 0 480 533.4" style="enable-background:new 0 0 480 533.4;" xml:space="preserve">
<style type="text/css">
	.st0{clip-path:url(#SVGID_2_);}
	.st1{fill:#BF4D00;}
	.st2{fill:#FF7F00;}
	.st3{fill:#E25B00;}
	.st4{fill:#EDF8F9;}
	.st5{fill:#29B6F6;}
	.st6{fill:#0277BD;}
	.st7{fill:#FFFFFF;}
	.st8{fill:#FF9100;}
	.st9{fill:#540000;}
	.st10{fill:#FFF8E1;}
	.st11{fill:#EADCB9;}
	.st12{fill:#F06292;}
	.st13{fill:#FF78AC;}
</style>
<g transform="matrix(1, 0, 0, 1, 0, 0)">
</g>
<g id="Group_18147" transform="translate(0 0)">
	<g>
		<g>
			<defs>
				
					<rect id="SVGID_1_" x="17.7" y="101.9" transform="matrix(0.318 -0.9481 0.9481 0.318 -85.8454 419.2596)" width="461.6" height="334.8"/>
			</defs>
			<clipPath id="SVGID_2_">
				<use xlink:href="#SVGID_1_"  style="overflow:visible;"/>
			</clipPath>
			<g id="Group_18031" transform="translate(0 0)" class="st0">
				<path id="Path_21580" class="st1" d="M362.7,367.4c-0.5,1.1-1.7,1.5-2.7,1.2c-1-0.3-1.5-1.7-1.2-2.7c0.3-1,1.7-1.5,2.7-1.2l0,0
					C362.6,365,363.1,366.3,362.7,367.4"/>
				<path id="Path_21581" class="st1" d="M360.9,352.4c-0.4,0.9-1.4,1.3-2.3,1c-0.9-0.4-1.3-1.4-1-2.3c0.4-0.9,1.4-1.3,2.3-1
					C360.9,350.3,361.2,351.4,360.9,352.4L360.9,352.4"/>
				<path id="Path_21582" class="st1" d="M205.4,329.3c-0.6,1.4-2.2,2-3.5,1.4c-1.4-0.6-2-2.2-1.4-3.5c0.6-1.4,2.2-2,3.5-1.4
					C205.3,326.4,206,327.9,205.4,329.3"/>
				<path id="Path_21583" class="st1" d="M240.4,265.7c-0.2,0.7-1,0.9-1.6,0.7c-0.6-0.3-0.9-1-0.6-1.7c0.3-0.5,0.9-0.9,1.6-0.6
					C240.4,264.4,240.7,265.1,240.4,265.7"/>
				<path id="Path_21584" class="st1" d="M258.2,279c-0.6,1.4-2.2,2.1-3.7,1.5c-1.4-0.6-2.1-2.2-1.5-3.7c0.6-1.4,2.2-2.1,3.7-1.5
					C258.1,275.9,258.8,277.5,258.2,279"/>
				<path id="Path_21585" class="st1" d="M243.9,344.6c-0.5,1.2-1.9,1.8-3.1,1.3c-1.2-0.5-1.8-1.9-1.3-3.1c0.5-1.2,1.9-1.8,3.1-1.3
					l0,0C243.8,342.1,244.4,343.4,243.9,344.6"/>
				<path id="Path_21586" class="st1" d="M298.9,347.5c-0.6,1.5-2.2,2.2-3.7,1.6c-1.5-0.6-2.2-2.2-1.6-3.7c0.6-1.5,2.2-2.2,3.7-1.6
					l0,0C298.7,344.4,299.4,346.1,298.9,347.5"/>
				<path id="Path_21587" class="st1" d="M265.2,265.4c-0.5,1.2-1.9,1.8-3.1,1.3c-1.2-0.5-1.8-1.9-1.3-3.1s1.9-1.8,3.1-1.3l0,0
					C265.1,262.8,265.7,264.2,265.2,265.4"/>
				<path id="Path_21588" class="st1" d="M326.7,359.7c-0.6,1.5-2.3,2.3-3.9,1.6c-1.5-0.6-2.3-2.3-1.6-3.9s2.3-2.3,3.9-1.6l0,0
					C326.7,356.4,327.4,358.1,326.7,359.7L326.7,359.7"/>
				<path id="Path_21589" class="st1" d="M283.6,327.8c-0.8,2-2.9,2.8-4.8,2.1c-1.9-0.7-2.8-2.9-2.1-4.8c0.8-2,2.9-2.8,4.8-2.1l0,0
					C283.5,323.7,284.4,325.8,283.6,327.8"/>
				<path id="Path_21590" class="st1" d="M269,333.4c-0.5,1.2-1.9,1.8-3.2,1.4c-1.2-0.5-1.8-1.9-1.4-3.2c0.5-1.2,1.9-1.8,3.2-1.4
					l0,0C268.9,330.9,269.5,332.2,269,333.4"/>
				<path id="Path_21591" class="st1" d="M254.8,327.1c-0.4,1-1.6,1.6-2.6,1.1c-1-0.4-1.6-1.6-1.1-2.6c0.4-1,1.6-1.6,2.6-1.1l0,0
					C254.8,325,255.3,326.1,254.8,327.1L254.8,327.1"/>
				<path id="Path_21592" class="st1" d="M246.3,305.6c-0.5,1.3-2,2-3.3,1.4c-1.3-0.5-2-2-1.4-3.3c0.5-1.3,2-2,3.3-1.4l0,0
					C246.3,302.7,246.9,304.3,246.3,305.6"/>
				<path id="Path_21593" class="st1" d="M237.9,288.5c-0.6,1.4-2.2,2.1-3.7,1.5c-1.4-0.6-2.1-2.2-1.5-3.7c0.6-1.4,2.2-2.1,3.7-1.5
					C237.8,285.5,238.5,287.1,237.9,288.5"/>
				<path id="Path_21594" class="st1" d="M222.5,300.3c-0.5,1.3-2,1.9-3.2,1.4c-1.3-0.5-1.9-2-1.4-3.2c0.5-1.3,2-1.9,3.2-1.4
					C222.4,297.6,223,299,222.5,300.3L222.5,300.3"/>
				<path id="Path_21595" class="st1" d="M220.3,288.2c-0.8,2-3,2.9-4.9,2c-2-0.8-2.9-3-2-4.9c0.8-2,3-2.9,4.9-2
					C220.1,284,221.1,286.3,220.3,288.2L220.3,288.2"/>
				<path id="Path_21596" class="st1" d="M206.9,294.7c-0.6,1.6-2.3,2.3-3.9,1.6s-2.3-2.3-1.6-3.9c0.6-1.6,2.3-2.3,3.9-1.6
					C206.8,291.4,207.5,293.2,206.9,294.7L206.9,294.7"/>
				<path id="Path_21597" class="st1" d="M191.4,314.5c-0.3,0.7-1.2,1.1-2,0.8c-0.7-0.3-1.1-1.2-0.8-2c0.3-0.7,1.2-1.1,2-0.8l0,0
					C191.3,312.8,191.7,313.6,191.4,314.5L191.4,314.5"/>
				<path id="Path_21598" class="st1" d="M375.6,349.5c-0.7,1.7-2.6,2.5-4.3,1.8c-1.7-0.7-2.5-2.6-1.8-4.3c0.7-1.7,2.6-2.5,4.3-1.8
					l0,0C375.4,345.9,376.3,347.8,375.6,349.5L375.6,349.5"/>
				<path id="Path_21599" class="st1" d="M173.3,312.7c-0.6,1.5-2.2,2.2-3.6,1.6c-1.4-0.6-2.2-2.2-1.6-3.6l0-0.1
					c0.6-1.4,2.3-2.1,3.7-1.5C173.1,309.7,173.8,311.3,173.3,312.7"/>
				<path id="Path_21600" class="st1" d="M264.7,301.9c-0.2,0.7-1,0.9-1.6,0.7c-0.7-0.2-0.9-1-0.7-1.6c0.2-0.7,1-0.9,1.6-0.7l0,0
					C264.6,300.5,264.9,301.3,264.7,301.9"/>
				<path id="Path_21601" class="st1" d="M153.4,289.5c-0.6,1.5-2.2,2.1-3.7,1.5s-2.1-2.2-1.5-3.7c0.6-1.5,2.2-2.1,3.7-1.5
					C153.3,286.4,154,288.1,153.4,289.5"/>
				<path id="Path_21602" class="st1" d="M143.4,287.2c-0.7,1.7-2.5,2.4-4.2,1.8c-1.7-0.7-2.4-2.5-1.8-4.2c0.7-1.7,2.5-2.4,4.2-1.8
					l0,0C143.3,283.7,144,285.5,143.4,287.2L143.4,287.2"/>
				<path id="Path_21603" class="st1" d="M133.7,290.1c-0.2,0.7-1,0.9-1.6,0.6l0,0c-0.7-0.2-0.9-1-0.6-1.6l0,0
					c0.2-0.7,1-0.9,1.6-0.6l0,0C133.7,288.7,134,289.4,133.7,290.1L133.7,290.1"/>
				<path id="Path_21604" class="st1" d="M220.7,325.6c-0.3,0.8-1.1,1.2-1.9,0.9c-0.8-0.3-1.2-1.1-0.9-1.9l0-0.1
					c0.3-0.7,1.2-1.1,2-0.7C220.5,324,220.9,324.8,220.7,325.6"/>
				<path id="Path_21605" class="st1" d="M99.4,255.4c-0.4,0.8-1.3,1.3-2.1,0.9c-0.8-0.4-1.3-1.3-0.9-2.1c0.4-0.8,1.3-1.3,2.1-0.9
					l0,0C99.4,253.6,99.7,254.5,99.4,255.4"/>
				<path id="Path_21606" class="st1" d="M103.1,277.7c-0.6,1.5-2.3,2.2-3.8,1.6s-2.2-2.3-1.6-3.8s2.3-2.2,3.8-1.6
					C103,274.5,103.7,276.2,103.1,277.7"/>
				<path id="Path_21607" class="st2" d="M239.1,148.2c-3.5,2-17.7-18-42.4-23.7c-24.4-6.9-46.4,3.7-48.5,0.4
					c-1-1.5,3.4-7.3,13-11.7c12.3-5.6,26.2-6.7,39.4-3.2c13.1,3.3,24.8,11,32.9,21.8C239.7,140.2,240.7,147.4,239.1,148.2"/>
				<path id="Path_21608" class="st3" d="M200.4,110.4c21.7,5.6,38.2,20,45.3,37.1c-5.8-18-22.4-33.6-44.7-39.3
					c-22.3-5.7-44.4-0.1-58.1,12.9C157.2,109.5,178.7,104.8,200.4,110.4"/>
				<path id="Path_21609" class="st2" d="M412.2,218.6c-3.7,1.5-15.2-20.1-39-28.9c-23.4-9.9-46.5-2.2-48.2-5.8
					c-0.8-1.6,4.3-6.8,14.3-9.9c12.9-4,26.9-3.3,39.5,1.8c12.6,5,23.1,14.1,29.8,25.8C413.8,210.7,413.9,217.9,412.2,218.6"/>
				<path id="Path_21610" class="st3" d="M378.6,176.1c20.9,8.3,35.4,24.7,40.2,42.7c-3.5-18.6-18-36.1-39.3-44.6
					c-21.4-8.5-44-5.8-59.3,5.3C335.9,169.7,357.8,167.8,378.6,176.1"/>
				<path id="Path_21611" class="st3" d="M389,96.4c-12.8-13.1-28.3,7.3-16.6,17.5c42.9,37.8,52.6,63.9,56,92.2
					C428.3,206.1,441.9,150.6,389,96.4"/>
				<path id="Path_21612" d="M390.6,90.3c-13.6-12.3-28,8.3-16,18.2c44.2,36.2,49.5,69.5,53.7,97.8
					C428.3,206.1,444.8,139,390.6,90.3"/>
				<path id="Path_21613" class="st3" d="M253.6,37.9c18.3,0.5,15.4,24.9-0.1,24.1c-57-2.4-78.6,5.7-100.6,23.8
					C152.8,85.8,177.3,35.5,253.6,37.9"/>
				<path id="Path_21614" d="M258.2,29.9c18.3,0.5,14.5,25.3-0.9,24.2c-57-4.5-83.8,16-106.4,33.3C150.9,87.3,185.4,27.6,258.2,29.9
					"/>
				<path id="Path_21615" class="st3" d="M416.8,294.1c-13.2,39.3-55.7,60.5-95.1,47.3s-60.5-55.7-47.3-95.1s55.7-60.5,95.1-47.3
					S429.9,254.7,416.8,294.1"/>
				<path id="Path_21616" class="st4" d="M409.5,295c-12,35.8-50.8,55.2-86.7,43.2s-55.2-50.8-43.2-86.7s50.9-55.2,86.7-43.2l0,0
					C402.2,220.3,421.5,259.2,409.5,295L409.5,295"/>
				<path id="Path_21617" d="M352.8,281.5c-5.3,15.8-22.4,24.3-38.2,19s-24.3-22.4-19-38.2c5.3-15.8,22.4-24.3,38.2-19l0,0
					C349.6,248.7,358.1,265.8,352.8,281.5"/>
				<path id="Path_21618" class="st5" d="M350.2,280.6c-4.8,14.3-20.2,22-34.6,17.2c-14.3-4.8-22-20.2-17.2-34.6
					c4.8-14.3,20.2-22,34.6-17.2l0,0C347.2,250.9,354.9,266.4,350.2,280.6"/>
				<path id="Path_21619" class="st6" d="M348,280l-15.1-3l10.1,11.6l-12.7-8.7l5.1,14.5l-8.5-12.8l-0.7,15.4l-3.2-15.1l-6.8,13.9
					l3-15.1l-11.6,10.1l8.7-12.7l-14.5,5.1l12.8-8.5l-15.4-0.7l15.1-3.2l-13.9-6.8l15.1,3l-10.1-11.6l12.7,8.7l-5-14.6l8.5,12.8
					l0.7-15.4l3.2,15.1l6.8-13.9l-3,15.1l11.6-10.1l-8.7,12.7l14.5-5.1l-12.8,8.6l15.4,0.7l-15.1,3.2L348,280z"/>
				<path id="Path_21620" d="M333.9,275.2c-1.8,5.3-7.6,8.2-12.9,6.4c-5.3-1.8-8.2-7.6-6.4-12.9s7.6-8.2,12.9-6.4l0,0
					C332.8,264.1,335.7,269.8,333.9,275.2"/>
				<path id="Path_21621" class="st7" d="M327.4,220.2c-0.9,5.2,0.5,10.7,11.2,15c19.5,7.9,30.8,31.2,25.3,51.9
					c-6.7,25.2,35.8,27.6,43.1-4.7c7-30.7-18.8-71-60.1-72.3C339.9,210,329,211.8,327.4,220.2"/>
				<path id="Path_21622" class="st7" d="M356.7,268.3c-2.4,7.3-10.3,11.2-17.6,8.8s-11.2-10.3-8.8-17.6c2.4-7.3,10.3-11.2,17.6-8.8
					l0,0C355.3,253,359.2,261,356.7,268.3"/>
				<path id="Path_21623" class="st7" d="M318.5,283.1c-1.5,4.4-6.1,6.6-10.4,5.2c-4.4-1.5-6.6-6.1-5.2-10.4
					c1.4-4.3,6.1-6.6,10.4-5.2l0,0C317.6,274.1,319.9,278.8,318.5,283.1"/>
				<path id="Path_21624" class="st3" d="M100.2,185.2c-13.8,41.1,8.3,85.8,49.6,99.6s85.8-8.3,99.6-49.6
					c13.8-41.2-8.4-85.8-49.6-99.6l0,0C158.6,121.7,114,144,100.2,185.2L100.2,185.2"/>
				<path id="Path_21625" class="st4" d="M105.3,191.5c-12.6,37.5,7.6,78.2,45.2,90.8s78.2-7.6,90.8-45.2
					c12.6-37.5-7.6-78.2-45.2-90.8l0,0C158.7,133.7,117.9,153.9,105.3,191.5"/>
				<path id="Path_21626" d="M161.2,216.1c-5.6,16.6,3.3,34.4,19.9,40c16.6,5.6,34.4-3.3,40-19.9c5.6-16.6-3.3-34.4-19.9-40l0,0
					C184.7,190.6,166.7,199.6,161.2,216.1"/>
				<path id="Path_21627" class="st5" d="M164,217c-5,15,3,31.2,18,36.2s31.2-3,36.2-18s-3-31.2-18-36.2l0,0
					C185.3,194,169.1,202,164,217L164,217"/>
				<path id="Path_21628" class="st6" d="M166.2,217.8l14.5,7.1l-15.8,3.3l16.1,0.8l-13.4,8.9l15.2-5.3l-9.1,13.3l12.1-10.6
					l-3.1,15.8l7.1-14.5l3.3,15.8l0.8-16.1l8.9,13.4l-5.3-15.2l13.3,9.1l-10.6-12.2l15.8,3.1l-14.5-7.1l15.8-3.3l-16.1-0.8l13.6-8.8
					l-15.2,5.3l9.1-13.3L196.4,217l3.1-15.8l-7.1,14.5l-3.3-15.8l-0.8,16.1l-8.9-13.4l5.3,15.2l-13.3-9.1l10.6,12.1L166.2,217.8z"/>
				<path id="Path_21629" d="M181,222.7c-1.9,5.6,1.1,11.7,6.7,13.5c5.6,1.9,11.7-1.1,13.5-6.7c1.9-5.6-1.1-11.7-6.7-13.5
					C189,214.1,183,217.2,181,222.7L181,222.7"/>
				<path id="Path_21630" class="st7" d="M221.2,180.8c-2.5,5-7.2,8.7-18.9,5.6c-21.3-5.7-45.5,6.6-53.9,27.4
					c-10.4,25.3-47.3,0.5-33.1-31.2c13.5-30.1,60.6-47.5,95.9-22.5C217.3,164.3,225.2,172.8,221.2,180.8"/>
				<path id="Path_21631" class="st7" d="M197.6,214.9c-2.6,7.7,1.5,15.9,9.2,18.5c7.7,2.6,15.9-1.5,18.5-9.2
					c2.6-7.7-1.5-15.9-9.2-18.5l0,0C208.4,203.1,200.1,207.2,197.6,214.9C197.6,214.8,197.6,214.9,197.6,214.9"/>
				<path id="Path_21632" class="st7" d="M185.5,238.5c-1.5,4.4-6.1,6.6-10.4,5.2s-6.6-6.1-5.2-10.4c1.4-4.3,6.1-6.6,10.4-5.2l0,0
					C184.6,229.5,187,234.2,185.5,238.5"/>
				<path id="Path_21633" class="st8" d="M167.9,485.6c53.2,20.1,108.6,4.6,152.2-29.3c16.8-13.1,43.4-36,45.6-57.5
					c1.8-18-29.6-6.2-38.5-4.7c-51.7,8.9-111.5,5.1-156.5-22.4c-25.6-15.7-47.5-38.5-65.9-61.8c-5.1-6.5-12.1-20.2-20.8-17.7
					c-18,5-13.7,57.9-10.9,73.2C82.8,418.1,117.1,466.5,167.9,485.6"/>
				<path id="Path_21634" class="st9" d="M170.5,477.3c53.5,19.7,110.3,7.4,155.4-25.7c17.4-12.7,44.1-39.1,46.3-57.2
					c2.2-18.4-30.4-6.4-39.6-4.8c-53.3,8.9-114.5,4.1-161.1-23.9c-26.4-15.9-49.2-39.2-68.2-63c-5.4-6.7-12.5-20.6-21.5-18.2
					c-18.9,5.2-13.6,60.1-10.3,75.7C82.8,412.7,119.8,458.5,170.5,477.3"/>
				<path id="Path_21635" class="st10" d="M94.2,346c6.7,13.5,25.4,30.8,42.8,24.7c8.1-2.9,15.4-7.7,22-13.3
					c-18.5-14-34.5-30-49.8-47.5C94.2,319.1,86.4,330.3,94.2,346"/>
				<path id="Path_21636" class="st10" d="M178,397c9.2,11.3,37.8,18.9,52.8,19.7c6.3,0.3,9.7-3.8,13.2-8.5c3.7-5,6.3-10.6,7.5-16.7
					c-24.3-3.1-48-10-70.1-20.6C177.3,378.6,172.6,390.3,178,397"/>
				<path id="Path_21637" class="st10" d="M309.1,422c12.9,0.3,36.5,0.5,38-17.2c0.6-6.1-0.7-12-2.9-18c-3.9,1.1-7.8,2-11.7,2.8
					c-16.2,2.5-32.7,3.8-49.1,4.1C284.8,409.5,291.6,421.5,309.1,422"/>
				<path id="Path_21638" class="st11" d="M109.3,309.9c-6.1,4.2-11.6,7.4-15.4,14.5c18.2,5.7,33,19.7,41,36.9
					c1.4,3.1,1.6,6.5,0.7,9.8c0.6-0.1,1-0.3,1.6-0.5c8.1-2.9,15.4-7.7,22-13.3C140.4,343.4,124.4,327.3,109.3,309.9"/>
				<path id="Path_21639" class="st11" d="M251.4,391.7c-24.3-3.1-48-10-70.1-20.6c-2.3,4.5-4.5,9.4-5.4,14.1l0.7,0
					c21.9,0.7,44.3,7.9,61.1,22.4c1.5,1.1,2.5,2.9,2.9,4.8c1.2-1.3,2.3-2.6,3.3-4.1C247.6,403.4,250.3,397.7,251.4,391.7"/>
				<path id="Path_21640" class="st11" d="M344.3,386.8c-4.9,1-44.3,6.7-60.8,6.8c0.6,5.9,1.3,10.2,3.8,15.3
					c0.4-1.1,0.9-2.2,1.5-3.3c1.2-1.6,3-2.7,4.9-3.1c19-2.8,35.9-4.7,53,5.3c0.3-1.1,0.5-2.1,0.5-3.2
					C347.8,398.6,346.5,392.7,344.3,386.8"/>
				<path id="Path_21641" class="st12" d="M268.4,465.4c-28.9-44.2-122.6-85.7-161.2-32.7c16.5,21.2,38.7,36,63.1,45.1
					c33.8,12.5,70.1,13.8,104.9,0.6C273.3,473.9,271,469.5,268.4,465.4"/>
				<path id="Path_21642" class="st13" d="M201.2,462.4c-6.7,14.6-32.2,6.6-42,1.7c-9.7-4.8-32.2-20.1-25.8-34
					c6.2-13.3,31.9-4.9,41.6-0.4C185.3,434.4,207.6,448.4,201.2,462.4"/>
				<path id="Path_21643" class="st7" d="M136.9,260.8c-1.6,4.7,3.6,10.8,11.7,13.5c8.1,2.7,15.9,1,17.5-3.7
					c1.6-4.7-3.6-10.8-11.7-13.5C146.4,254.3,138.5,256,136.9,260.8"/>
				<path id="Path_21644" class="st7" d="M333.7,325.6c-1.5,4.6-9,6.1-16.7,3.6c-7.7-2.6-12.7-8.4-11.2-12.9c1.5-4.6,9-6.1,16.7-3.6
					C330.2,315.3,335.2,321.1,333.7,325.6"/>
			</g>
		</g>
	</g>
</g>
</svg>
