<svg version="1.1" id="Layer_1" xmlns="http://www.w3.org/2000/svg" x="0px" y="0px"
	 viewBox="0 0 480 533.4" style="enable-background:new 0 0 480 533.4;" xml:space="preserve">
<style type="text/css">
	.st0{fill:url(#Rectangle-2_1_);}
	.st1{fill:#BF4D00;}
	.st2{fill:#FF7F00;}
	.st3{fill:#E25B00;}
	.st4{fill:#000E50;}
	.st5{fill:#EDF8F9;}
	.st6{fill:#29B6F6;}
	.st7{fill:#0277BD;}
	.st8{fill:#FFFFFF;}
	.st9{fill:#FF9100;}
	.st10{fill:#33003F;}
	.st11{fill:#FFF8E1;}
	.st12{fill:#EADCB9;}
</style>
<linearGradient id="Rectangle-2_1_" gradientUnits="userSpaceOnUse" x1="124.9899" y1="310.5863" x2="125.9319" y2="312.0693" gradientTransform="matrix(462 0 0 462 -57616 -143371.0625)">
	<stop  offset="0" style="stop-color:#FF8228"/>
	<stop  offset="0.38" style="stop-color:#FF00AA"/>
	<stop  offset="1" style="stop-color:#14E5E5"/>
</linearGradient>
<path id="Rectangle-2" class="st0" d="M56.5,59.1h362c27.6,0,50,22.4,50,50v362c0,27.6-22.4,50-50,50h-362c-27.6,0-50-22.4-50-50
	v-362C6.5,81.5,28.9,59.1,56.5,59.1z"/>
<g transform="matrix(1, 0, 0, 1, 0, 0)">
</g>
<g>
	<path id="Path_21506" class="st1" d="M382.5,304.3c-0.1,1.2-1.1,2.1-2.3,2c-1.2-0.1-2.1-1.1-2-2.3c0.1-1.2,1.1-2.1,2.3-2
		C381.6,302.1,382.6,303.1,382.5,304.3C382.5,304.3,382.5,304.3,382.5,304.3"/>
	<path id="Path_21507" class="st1" d="M375.8,290.1c-0.1,1-0.9,1.8-2,1.7c-1-0.1-1.8-0.9-1.7-2c0.1-1,0.9-1.8,2-1.7
		C375.1,288.2,375.9,289.1,375.8,290.1C375.8,290.1,375.8,290.1,375.8,290.1"/>
	<path id="Path_21508" class="st1" d="M215.7,318.7c-0.1,1.6-1.4,2.7-3,2.7c-1.6-0.1-2.7-1.4-2.7-3c0.1-1.6,1.4-2.7,3-2.7
		c0,0,0,0,0,0C214.6,315.8,215.8,317.1,215.7,318.7"/>
	<path id="Path_21509" class="st1" d="M229.1,244.8c0,0.7-0.7,1.3-1.4,1.2c-0.7,0-1.3-0.7-1.2-1.4c0-0.7,0.7-1.3,1.4-1.2
		c0,0,0,0,0,0C228.6,243.5,229.1,244.1,229.1,244.8"/>
	<path id="Path_21510" class="st1" d="M250.9,251.9c-0.1,1.6-1.5,2.8-3.1,2.7c-1.6-0.1-2.8-1.5-2.7-3.1c0.1-1.6,1.5-2.8,3.1-2.7
		c0,0,0,0,0,0C249.8,249,251,250.4,250.9,251.9"/>
	<path id="Path_21511" class="st1" d="M258.5,321.1c-0.1,1.3-1.2,2.4-2.6,2.3c-1.3-0.1-2.4-1.2-2.3-2.6c0.1-1.3,1.2-2.4,2.6-2.3
		c0,0,0,0,0,0C257.5,318.6,258.5,319.8,258.5,321.1"/>
	<path id="Path_21512" class="st1" d="M313.3,305.8c-0.1,1.6-1.5,2.8-3.1,2.7c-1.6-0.1-2.8-1.5-2.7-3.1c0.1-1.6,1.5-2.8,3.1-2.7
		C312.2,302.8,313.4,304.2,313.3,305.8C313.3,305.8,313.3,305.8,313.3,305.8"/>
	<path id="Path_21513" class="st1" d="M253.3,236.3c-0.1,1.3-1.2,2.3-2.5,2.2c-1.3-0.1-2.3-1.2-2.2-2.5c0.1-1.3,1.2-2.3,2.5-2.2
		C252.4,233.9,253.4,235,253.3,236.3C253.3,236.3,253.3,236.3,253.3,236.3"/>
	<path id="Path_21514" class="st1" d="M344.7,308.6c-0.1,1.7-1.6,3-3.3,2.9c-1.7-0.1-3-1.6-2.9-3.3c0.1-1.7,1.6-3,3.3-2.9
		C343.5,305.4,344.8,306.9,344.7,308.6C344.7,308.6,344.7,308.6,344.7,308.6"/>
	<path id="Path_21515" class="st1" d="M291.9,291.4c-0.1,2.1-2,3.7-4.1,3.6c-2.1-0.1-3.7-2-3.6-4.1c0.1-2.1,1.9-3.7,4.1-3.6
		C290.4,287.5,292,289.3,291.9,291.4"/>
	<path id="Path_21516" class="st1" d="M279.4,301.9c-0.1,1.4-1.3,2.4-2.6,2.3c-1.4-0.1-2.4-1.3-2.3-2.6c0.1-1.4,1.3-2.4,2.6-2.3
		c0,0,0,0,0,0C278.4,299.3,279.5,300.5,279.4,301.9"/>
	<path id="Path_21517" class="st1" d="M263.5,300.3c-0.1,1.1-1.1,2-2.2,1.9c-1.1-0.1-2-1.1-1.9-2.2c0.1-1.1,1.1-2,2.2-1.9
		C262.7,298.2,263.5,299.2,263.5,300.3C263.5,300.3,263.5,300.3,263.5,300.3"/>
	<path id="Path_21518" class="st1" d="M248,281.9c-0.1,1.5-1.4,2.6-2.8,2.5c-1.5-0.1-2.6-1.4-2.5-2.8c0.1-1.5,1.3-2.6,2.8-2.5
		C247,279.2,248.1,280.5,248,281.9"/>
	<path id="Path_21519" class="st1" d="M234.2,268c-0.1,1.6-1.5,2.8-3.1,2.7c-1.6-0.1-2.8-1.5-2.7-3.1c0.1-1.6,1.5-2.8,3.1-2.7
		C233.1,265.1,234.3,266.4,234.2,268C234.2,268,234.2,268,234.2,268"/>
	<path id="Path_21520" class="st1" d="M222.9,284.6c-0.1,1.4-1.3,2.5-2.7,2.4c-1.4-0.1-2.5-1.3-2.4-2.7c0.1-1.4,1.3-2.5,2.7-2.4
		c0,0,0,0,0,0C221.9,282,223,283.2,222.9,284.6C222.9,284.6,222.9,284.6,222.9,284.6"/>
	<path id="Path_21521" class="st1" d="M216.7,273.4c-0.1,2.2-2,3.8-4.1,3.7c-2.2-0.1-3.8-2-3.7-4.1c0.1-2.2,2-3.8,4.1-3.7
		c0,0,0,0,0,0C215.2,269.4,216.9,271.3,216.7,273.4"/>
	<path id="Path_21522" class="st1" d="M205.7,284.3c-0.1,1.7-1.6,3-3.3,2.9c-1.7-0.1-3-1.6-2.9-3.3c0.1-1.7,1.6-3,3.3-2.9
		C204.5,281.1,205.8,282.5,205.7,284.3"/>
	<path id="Path_21523" class="st1" d="M197,308.7c-0.1,0.8-0.8,1.5-1.6,1.4s-1.5-0.8-1.4-1.6c0.1-0.8,0.8-1.5,1.6-1.4
		C196.4,307.2,197,307.9,197,308.7C197,308.7,197,308.7,197,308.7"/>
	<path id="Path_21524" class="st1" d="M389.3,282.5c-0.1,1.9-1.7,3.3-3.6,3.2c-1.9-0.1-3.3-1.7-3.2-3.6c0.1-1.9,1.7-3.3,3.6-3.2
		c0,0,0,0,0,0C388,279.1,389.4,280.7,389.3,282.5"/>
	<path id="Path_21525" class="st1" d="M178.7,313c-0.1,1.6-1.5,2.8-3.1,2.7c-1.6-0.1-2.8-1.5-2.7-3.1c0.1-1.6,1.5-2.8,3.1-2.7
		c0,0,0,0,0,0C177.5,310,178.8,311.4,178.7,313C178.7,313,178.7,313,178.7,313"/>
	<path id="Path_21526" class="st1" d="M264.8,272.4c-0.1,0.7-0.7,1.2-1.4,1.2c-0.7-0.1-1.2-0.7-1.2-1.3c0-0.7,0.6-1.3,1.3-1.3
		C264.2,271,264.8,271.6,264.8,272.4C264.8,272.3,264.8,272.3,264.8,272.4"/>
	<path id="Path_21527" class="st1" d="M151.6,296.8c-0.1,1.6-1.5,2.8-3.1,2.7c-1.6-0.1-2.8-1.5-2.7-3.1c0.1-1.6,1.5-2.8,3.1-2.7
		c0,0,0,0,0,0C150.5,293.8,151.7,295.2,151.6,296.8"/>
	<path id="Path_21528" class="st1" d="M141,297.8c-0.1,1.8-1.7,3.2-3.5,3.1c-1.8-0.1-3.2-1.7-3.1-3.5c0.1-1.8,1.7-3.2,3.5-3.1
		c0,0,0,0,0,0C139.7,294.5,141.1,296,141,297.8"/>
	<path id="Path_21529" class="st1" d="M132.5,303.8c-0.1,0.7-0.7,1.2-1.4,1.1c-0.7-0.1-1.2-0.6-1.1-1.3c0-0.7,0.6-1.3,1.3-1.2
		C131.9,302.4,132.5,303,132.5,303.8C132.5,303.7,132.5,303.7,132.5,303.8"/>
	<path id="Path_21530" class="st1" d="M229.4,310c-0.1,0.9-0.8,1.5-1.6,1.5c-0.9-0.1-1.5-0.8-1.4-1.6c0.1-0.9,0.8-1.5,1.6-1.4
		C228.8,308.5,229.4,309.2,229.4,310"/>
	<path id="Path_21531" class="st1" d="M87.3,281c-0.1,0.9-0.8,1.6-1.8,1.6c-0.9-0.1-1.6-0.8-1.6-1.8c0.1-0.9,0.8-1.6,1.8-1.6
		c0,0,0,0,0,0C86.7,279.3,87.4,280.1,87.3,281"/>
	<path id="Path_21532" class="st1" d="M98.3,301.8c-0.1,1.7-1.5,2.9-3.2,2.8c-1.7-0.1-2.9-1.5-2.8-3.2c0.1-1.7,1.5-2.9,3.2-2.8
		C97.1,298.6,98.4,300.1,98.3,301.8C98.3,301.7,98.3,301.8,98.3,301.8"/>
	<path id="Path_21533" class="st2" d="M189.2,129.9c-2.8,3.1-23.2-11.8-49.4-9.3c-26.2,1.3-44.3,19-47.5,16.3
		c-1.5-1.1,0.9-8.2,8.9-15.7c21.3-19.4,53.1-21.8,77-5.6C187.1,121.9,190.5,128.6,189.2,129.9"/>
	<path id="Path_21534" class="st3" d="M138.7,105.5c23.1-1.7,44.1,7.1,56.7,21.6c-11.6-15.8-33.1-25.5-56.8-23.8
		c-23.8,1.7-43.6,14.5-52.8,31.8C96.1,118.9,115.6,107.2,138.7,105.5"/>
	<path id="Path_21535" class="st2" d="M382.1,142c-3.1,2.7-21.5-14.7-47.8-15.6c-26.2-2.1-46.4,13.1-49.2,10.1
		c-1.3-1.3,1.9-8,10.8-14.4c23.6-16.6,55.5-14.8,77.1,4.3C381.1,133.9,383.5,140.9,382.1,142"/>
	<path id="Path_21536" class="st3" d="M335.2,111.4c23.1,1.3,42.9,12.6,53.4,28.6c-9.5-17.1-29.5-29.5-53.3-30.9
		c-23.8-1.3-45.1,8.8-56.4,24.7C291.2,119.2,312,110.1,335.2,111.4"/>
	<path id="Path_21537" class="st3" d="M319.1,8.4c-16.9-8.7-25.4,16.4-10.6,22.7c54.5,23,72.7,45.3,85.3,72
		C393.8,103.2,388.9,44.3,319.1,8.4"/>
	<path id="Path_21538" class="st4" d="M318.7,1.9c-17.4-7.5-24.8,17.3-9.8,23c55.3,21,71.4,51.9,84.9,78.2
		C393.8,103.2,387.9,31.9,318.7,1.9"/>
	<path id="Path_21539" class="st3" d="M167,17c18.1-5.5,23.2,19.3,7.8,23.7C118.1,57.1,99.6,72.1,84,97.2C84,97.2,91.3,39.8,167,17"
		/>
	<path id="Path_21540" class="st4" d="M168.9,7.6c18.1-5.4,22.6,20.1,7,24C118.6,46,99,74.8,82.6,99.3
		C82.6,99.3,96.8,29.3,168.9,7.6"/>
	<path id="Path_21541" class="st3" d="M411.4,214.6c0,42.9-34.8,77.7-77.7,77.7c-42.9,0-77.7-34.8-77.7-77.7
		c0-42.9,34.8-77.7,77.7-77.7l0,0C376.6,136.9,411.4,171.7,411.4,214.6"/>
	<path id="Path_21542" class="st5" d="M404.6,217.9c0,39.1-31.7,70.8-70.8,70.8s-70.8-31.7-70.8-70.8c0-39.1,31.7-70.8,70.8-70.8
		C372.8,147.1,404.6,178.8,404.6,217.9"/>
	<path id="Path_21543" d="M344.6,223.4c0,17.2-14,31.2-31.2,31.2c-17.2,0-31.2-14-31.2-31.2c0-17.2,14-31.2,31.2-31.2c0,0,0,0,0,0
		C330.6,192.2,344.6,206.1,344.6,223.4"/>
	<path id="Path_21544" class="st6" d="M341.6,223.4c0,15.6-12.7,28.3-28.3,28.3c-15.6,0-28.3-12.7-28.3-28.3
		c0-15.6,12.7-28.3,28.3-28.3l0,0C329,195.1,341.6,207.8,341.6,223.4"/>
	<path id="Path_21545" class="st7" d="M339.3,223.4l-15.8,2.1l13.8,8l-15.3-4.3l9.8,12.6l-12.6-9.8l4.3,15.3l-8-13.8l-2.1,15.8
		l-2.1-15.8l-8,13.8l4.3-15.3l-12.6,9.8l9.8-12.6l-15.3,4.3l13.8-8l-15.8-2.1l15.8-2.1l-13.8-8l15.3,4.3L295,205l12.6,9.8l-4.3-15.3
		l8,13.8l2.1-15.8l2.1,15.8l8-13.8l-4.3,15.3l12.6-9.8l-9.8,12.6l15.3-4.3l-13.8,8L339.3,223.4z"/>
	<path id="Path_21546" d="M323.9,223.4c0,5.8-4.7,10.5-10.5,10.5c-5.8,0-10.5-4.7-10.5-10.5c0-5.8,4.7-10.5,10.5-10.5h0
		C319.2,212.8,323.9,217.5,323.9,223.4"/>
	<path id="Path_21547" class="st8" d="M299.5,171.5c0.8,5.4,4,10.3,15.9,11.1c22.4,2.1,40.1,20.1,41.9,42.6
		c1.7,27,44.2,15.3,40.8-18.8c-3.2-32.4-41.8-63.5-82.7-51.2C308.3,157.3,298.2,162.7,299.5,171.5"/>
	<path id="Path_21548" class="st8" d="M344.1,209c0,8-6.5,14.4-14.4,14.4c-8,0-14.4-6.5-14.4-14.4c0-7.9,6.5-14.4,14.4-14.4
		C337.6,194.6,344.1,201,344.1,209C344.1,208.9,344.1,209,344.1,209"/>
	<path id="Path_21549" class="st8" d="M311.4,236.2c0,4.7-3.8,8.5-8.5,8.5c-4.7,0-8.5-3.8-8.5-8.5c0-4.7,3.8-8.5,8.5-8.5
		c0,0,0,0,0,0C307.5,227.6,311.4,231.5,311.4,236.2"/>
	<path id="Path_21550" class="st3" d="M65,211.9c0,45,36.4,81.4,81.4,81.4s81.4-36.4,81.4-81.4c0-45-36.4-81.4-81.4-81.4
		c0,0,0,0,0,0C101.5,130.5,65,167,65,211.9C65,211.9,65,211.9,65,211.9"/>
	<path id="Path_21551" class="st5" d="M72.2,216.4c0,41,33.2,74.2,74.2,74.2s74.2-33.2,74.2-74.2c0-41-33.2-74.2-74.2-74.2
		c0,0,0,0,0,0C105.4,142.2,72.2,175.4,72.2,216.4"/>
	<path id="Path_21552" d="M135,222.2c0,18.1,14.6,32.7,32.7,32.7c18.1,0,32.7-14.6,32.7-32.7c0-18.1-14.6-32.7-32.7-32.7
		c0,0,0,0,0,0C149.7,189.5,135,204.1,135,222.2"/>
	<path id="Path_21553" class="st6" d="M138.1,222.2c0,16.4,13.3,29.6,29.6,29.6c16.4,0,29.6-13.3,29.6-29.6
		c0-16.4-13.3-29.6-29.6-29.6c0,0,0,0,0,0C151.4,192.6,138.1,205.8,138.1,222.2"/>
	<path id="Path_21554" class="st7" d="M140.6,222.2l16.6,2.2l-14.4,8.4l16.1-4.5l-10.2,13.2l13.2-10.2l-4.5,16.1l8.4-14.4l2.2,16.6
		l2.2-16.6l8.4,14.4l-4.5-16.1l13.2,10.2l-10.2-13.2l16.1,4.5l-14.4-8.4l16.6-2.2l-16.6-2.2l14.4-8.4l-16.1,4.5l10.2-13.2
		l-13.2,10.2l4.5-16.1l-8.4,14.4l-2.2-16.6l-2.2,16.6l-8.4-14.4l4.5,16.1l-13.2-10.2l10.2,13.2l-16.1-4.5l14.4,8.4L140.6,222.2z"/>
	<path id="Path_21555" d="M156.7,222.2c0,6.1,5,11,11.1,11c6.1,0,11-5,11-11.1c0-6.1-4.9-11-11-11
		C161.6,211.1,156.7,216.1,156.7,222.2C156.7,222.2,156.7,222.2,156.7,222.2"/>
	<path id="Path_21556" class="st8" d="M182.3,167.8c-0.8,5.7-4.2,10.8-16.7,11.6c-23.5,2.2-42.1,21.1-43.9,44.6
		c-1.8,28.3-46.3,16.1-42.8-19.7c3.4-33.9,43.8-66.5,86.7-53.6C173,153,183.6,158.6,182.3,167.8"/>
	<path id="Path_21557" class="st8" d="M170.3,209c0,8.3,6.8,15.1,15.1,15.1c8.3,0,15.1-6.8,15.1-15.1c0-8.3-6.8-15.1-15.1-15.1
		C177,193.9,170.3,200.6,170.3,209C170.3,209,170.3,209,170.3,209"/>
	<path id="Path_21558" class="st8" d="M166.3,236.2c0,4.7-3.8,8.5-8.5,8.5s-8.5-3.8-8.5-8.5c0-4.7,3.8-8.5,8.5-8.5
		C162.5,227.6,166.3,231.5,166.3,236.2"/>
	<path id="Path_21559" class="st8" d="M340.4,272.8c0,5-6.8,9-15.2,9s-15.2-4-15.2-9s6.8-9,15.2-9S340.4,267.9,340.4,272.8"/>
	<path id="Path_21560" class="st8" d="M125.9,274c0,5.2,7.1,9.4,15.9,9.4s15.9-4.2,15.9-9.4s-7.1-9.4-15.9-9.4
		S125.9,268.8,125.9,274"/>
	<path id="Path_21561" class="st9" d="M378.7,360.1c-61.4,45.7-113.5,53-155.2,48.9c-50.3-4.9-88.5-29.2-104.4-47.3
		c-3.2-3.7-5.5-7-6.9-8.6c-1.7-2-3.3-0.7,0.5,4.4c43.3,58.7,165.5,96.6,263.8,6.1C377.4,361.6,378.2,361,378.7,360.1"/>
	<path id="Path_21562" class="st10" d="M113,357.9c-2.4-3.4-6.4-7.8-6.4-10.8c0-4.3,3.5,0.4,5.1,3c11.3,17.7,84.8,92.3,210,42.2
		c18.7-7.2,36.2-17.3,51.7-30c11.1-9.5,13.6-9.4,7.2-2.7c-8.6,9-28.2,21.6-39.2,27.3C240.1,438.6,141.3,397.5,113,357.9"/>
	<path id="Path_21563" class="st11" d="M367.4,364.1c-2.3-2.2-4.8-4.1-7.6-5.7c-10.3-5.9-28.3-2.7-37,5c-9.6,8.5-8.9,19.8-4.9,30.3
		c0.4,1,0.8,2,1.2,3c7.6-2.9,15-6.2,22.2-9.9c7-3.6,18.8-12.1,29.6-18.9C369.9,366.6,368.7,365.3,367.4,364.1"/>
	<path id="Path_21564" class="st12" d="M368.4,365.1c-7.9,7-17.1,12.4-27,15.8c-8.1,3.3-16.8,4.9-25.6,4.8c0.5,2.7,1.3,5.4,2.3,8
		c0.4,1,0.7,2.1,1.2,3.1c7.6-2.9,15-6.2,22.2-9.9c10.4-5.5,20.3-11.8,29.6-18.9C370.2,367,369.3,366,368.4,365.1"/>
	<path id="Path_21565" class="st11" d="M172.9,392.8c4.7-12.7,3.2-25.8-16.3-38c-12.8-8-24.7-6.4-34.1,2.7c-1.9,1.7-3.6,3.7-5,5.9
		c10.5,12.3,29.9,26,53.3,34.6C171.5,396.4,172.2,394.6,172.9,392.8"/>
	<path id="Path_21566" class="st12" d="M173.4,391.1c-12.5-1.1-24.3-6.2-33.6-14.5c-6.7-5.6-12.3-12.2-16.8-19.6
		c-0.2,0.2-0.4,0.4-0.7,0.6c-1.9,1.7-3.6,3.7-5,5.9c10.5,12.3,29.9,26,53.3,34.6c0.8-1.7,1.6-3.5,2.2-5.3
		C173.1,392.2,173.3,391.7,173.4,391.1"/>
	<path id="Path_21567" class="st11" d="M276.1,405.8c-0.3-1.9-0.7-3.8-1.1-5.7c-0.2-0.7-0.3-1.4-0.5-2.1
		c-4.5-16.2-19.2-22.7-36.4-20.8c-17.6,2-26.3,11.3-28.9,25.4c-0.2,1.3-0.4,2.7-0.6,4c-0.1,0.5-0.1,1.1-0.1,1.6
		c22.5,3.8,45.6,3.8,68.1,0.1C276.3,407.5,276.2,406.6,276.1,405.8"/>
	<path id="Path_21568" class="st12" d="M275,400c-3.5,2.3-7.4,4.1-11.5,5.2c-10,2.4-20.4,3-30.6,1.6c-8.1-0.4-16.1-1.9-23.8-4.3
		c-0.2,1.3-0.5,2.7-0.6,4c-0.1,0.5-0.1,1.1-0.1,1.6c22.5,3.8,45.6,3.8,68.1,0.1c-0.1-0.9-0.2-1.7-0.3-2.6
		C275.8,403.8,275.4,401.9,275,400"/>
</g>
</svg>
